<?xml version="1.0" standalone="no"?>
<!DOCTYPE svg PUBLIC "-//W3C//DTD SVG 1.1//EN" "http://www.w3.org/Graphics/SVG/1.1/DTD/svg11.dtd" >
<svg xmlns="http://www.w3.org/2000/svg" xmlns:xlink="http://www.w3.org/1999/xlink" version="1.1">
<metadata>
Created by FontForge 20170731 at Tue Jun 14 06:12:23 2022
 By Aleksey,,,
Vadym Aksieiev(c)
</metadata>
<defs>
<font id="NeutralFaceRegular" horiz-adv-x="1636" >
  <font-face 
    font-family="Neutral Face"
    font-weight="400"
    font-stretch="normal"
    units-per-em="2048"
    panose-1="0 0 0 0 0 0 0 0 0 0"
    ascent="1638"
    descent="-410"
    cap-height="1659"
    bbox="-232 -430 2346 2152"
    underline-thickness="102"
    underline-position="-307"
    unicode-range="U+000A-F009"
  />
<missing-glyph horiz-adv-x="1079" 
d="M102 1434h875v-1434h-875v1434zM160 1393l379 -633l381 633h-760zM514 717l-369 614v-1231zM541 674l-379 -631h758zM565 717l371 -621v1239z" />
    <glyph glyph-name=".notdef" horiz-adv-x="1079" 
d="M102 1434h875v-1434h-875v1434zM160 1393l379 -633l381 633h-760zM514 717l-369 614v-1231zM541 674l-379 -631h758zM565 717l371 -621v1239z" />
    <glyph glyph-name=".null" horiz-adv-x="0" 
 />
    <glyph glyph-name=".null" horiz-adv-x="0" 
 />
    <glyph glyph-name="nonmarkingreturn" horiz-adv-x="682" 
 />
    <glyph glyph-name="controlLF" unicode="&#xa;" horiz-adv-x="0" 
 />
    <glyph glyph-name="controlCR" unicode="&#xd;" horiz-adv-x="0" 
 />
    <glyph glyph-name="space" unicode=" " horiz-adv-x="770" 
 />
    <glyph glyph-name="exclam" unicode="!" horiz-adv-x="399" 
d="M244 467h-92l-55 1192h202zM308 0h-220v225h220v-225z" />
    <glyph glyph-name="quotedbl" unicode="&#x22;" horiz-adv-x="778" 
d="M447 1659h220v-225q-1 -107 -78 -163.5t-175 -33.5v71q71 -18 122 20t56 106h-145v225zM144 1434v225h220v-225q-1 -107 -78 -163.5t-175 -33.5v71q71 -18 122 20t56 106h-145z" />
    <glyph glyph-name="numbersign" unicode="#" horiz-adv-x="1882" 
d="M1700 420h-406l-121 -420h-168l120 420h-471l-121 -420h-168l121 420h-375l38 123h371l151 528h-437l41 125h434l131 462h170l-132 -462h470l132 462h169l-132 -462h348l-41 -125h-345l-151 -528h412zM1160 543l151 528h-471l-151 -528h471z" />
    <glyph glyph-name="dollar" unicode="$" horiz-adv-x="1275" 
d="M1200 457q0 -66 -13.5 -127.5t-49.5 -125t-90.5 -112t-144 -82.5t-203.5 -41v-268h-168v274q-93 13 -171 50.5t-130.5 88.5t-88.5 115t-52.5 130t-16.5 134h168q0 -67 27.5 -130t78 -114.5t131 -83t177.5 -31.5q105 0 181.5 28.5t118 78t60.5 108t19 127.5
q0 75 -31.5 127.5t-84.5 82t-122 49.5t-145 36t-152.5 34.5t-145.5 51t-122 80.5t-84.5 129t-31.5 189q0 173 105.5 290t311.5 141v303h168v-301q207 -20 317 -150.5t110 -334.5h-168q0 138 -92.5 229t-237.5 91q-157 0 -251 -71.5t-94 -203.5q0 -78 31.5 -134t84.5 -87.5
t121.5 -53t144.5 -37.5t152.5 -35t145 -51.5t121.5 -79.5t84.5 -126.5t31.5 -186.5z" />
    <glyph glyph-name="percent" unicode="%" horiz-adv-x="1871" 
d="M1245 1659h187l-803 -1658h-187zM818 1274q0 -104 -33 -186.5t-88.5 -131.5t-123 -74.5t-142.5 -25.5t-142.5 25.5t-123.5 74.5t-89 131.5t-33 186.5q0 184 108.5 301t279.5 117q174 0 280.5 -115t106.5 -303zM431 1022q32 0 61.5 9t61.5 33.5t51.5 78t19.5 131.5
q0 38 -4.5 71t-18 67.5t-34 59t-56 40t-81.5 15.5q-195 0 -195 -253q0 -48 8.5 -88.5t28.5 -79.5t60.5 -61.5t97.5 -22.5zM1441 804q174 0 281 -115.5t107 -303.5q0 -104 -33 -186.5t-89 -131.5t-123.5 -74.5t-142.5 -25.5t-142.5 25.5t-123 74.5t-88.5 131.5t-33 186.5
q0 185 108 302t279 117zM1441 133q25 0 48 5t51 21t48 42.5t33.5 74t13.5 110.5q0 48 -8.5 88.5t-28 79.5t-60 61.5t-97.5 22.5q-194 0 -194 -252q0 -48 8 -89t28 -80t60.5 -61.5t97.5 -22.5z" />
    <glyph glyph-name="ampersand" unicode="&#x26;" horiz-adv-x="1505" 
d="M53 407q0 72 20.5 137t51.5 112.5t77.5 92t88 74t94.5 60.5l87 56l-23 29q-84 122 -115 232t-2 230q27 111 112.5 186.5t236.5 75.5q53 0 98 -8q147 -24 222 -131.5t50 -241.5q-45 -238 -260 -358l-79 -50l390 -454l13 24q115 207 138 331h164q-18 -79 -45 -155.5
t-48 -123t-50.5 -96.5t-36.5 -60.5t-21 -29.5l-1 -2l-9 -12l260 -324h-237l-140 191q-8 -9 -23.5 -24t-68.5 -54t-111.5 -68.5t-151.5 -54t-190 -24.5q-114 0 -204.5 34.5t-142.5 85t-86 113.5t-46 114t-12 93zM485 1416q-20 -60 -13.5 -117.5t31 -109.5t51.5 -91.5
t48 -63.5l22 -23q9 3 23.5 9.5t55.5 30t76 51.5t72.5 75t57.5 99q34 91 -6 172t-140 111q-32 13 -73 9t-79 -17.5t-72.5 -49t-53.5 -85.5zM505 792q-36 -22 -56.5 -36t-60 -43t-64 -56.5t-51 -64.5t-39.5 -80.5t-13 -90.5q0 -71 39.5 -141.5t104.5 -114.5q75 -51 218 -51
q65 0 130.5 20.5t112 50t84 59.5t56.5 50l18 21l-421 512z" />
    <glyph glyph-name="quotesingle" unicode="'" horiz-adv-x="475" 
d="M144 1659h220v-225q-1 -107 -78 -163.5t-175 -33.5v71q71 -18 122 20t56 106h-145v225z" />
    <glyph glyph-name="quotesingle" unicode="&#x2019;" horiz-adv-x="475" 
d="M144 1659h220v-225q-1 -107 -78 -163.5t-175 -33.5v71q71 -18 122 20t56 106h-145v225z" />
    <glyph glyph-name="quotesingle" unicode="&#x2018;" horiz-adv-x="475" 
d="M144 1659h220v-225q-1 -107 -78 -163.5t-175 -33.5v71q71 -18 122 20t56 106h-145v225z" />
    <glyph glyph-name="parenleft" unicode="(" horiz-adv-x="929" 
d="M648 -356q-123 127 -221.5 258.5t-181 295t-124 330t-38.5 362.5t62 393.5t192.5 421t338.5 447.5l144 -2q-117 -151 -208 -288.5t-169.5 -287.5t-125.5 -301t-58 -293q-47 -631 546 -1336h-157z" />
    <glyph glyph-name="parenright" unicode=")" horiz-adv-x="931" 
d="M254 2152q205 -224 338.5 -447.5t192.5 -421t62 -393.5t-38.5 -362.5t-124 -330t-181 -295t-221.5 -258.5h-156q592 704 545 1336q-11 143 -58 293.5t-125.5 300t-169 287.5t-207.5 289z" />
    <glyph glyph-name="asterisk" unicode="*" horiz-adv-x="804" 
d="M751 1350l-268 -82l173 -245l-83 -58l-173 246l-173 -246l-83 58l174 246l-265 81l30 96l258 -78v291h120v-292l260 79z" />
    <glyph glyph-name="plus" unicode="+" horiz-adv-x="1077" 
d="M1036 988v-162h-414v-416h-167v416h-414v162h414v416h167v-416h414z" />
    <glyph glyph-name="comma" unicode="," horiz-adv-x="475" 
d="M144 226h220v-226q-1 -107 -78 -163.5t-175 -33.5v71q71 -18 122 20t56 106h-145v226z" />
    <glyph glyph-name="hyphen" unicode="-" horiz-adv-x="884" 
d="M839 825h-794v162h794v-162z" />
    <glyph glyph-name="period" unicode="." horiz-adv-x="323" 
d="M271 0h-220v225h220v-225z" />
    <glyph glyph-name="slash" unicode="/" horiz-adv-x="1208" 
d="M913 1658h185l-802 -1658h-185z" />
    <glyph glyph-name="zero" unicode="0" horiz-adv-x="1415" 
d="M707 1692q304 0 465.5 -226.5t161.5 -635.5q0 -414 -161 -638.5t-466 -224.5q-303 0 -465 224.5t-162 638.5q0 404 162.5 633t464.5 229zM707 135q103 0 183.5 36.5t144 115.5t97.5 216.5t34 326.5q0 150 -22.5 268.5t-63 197.5t-98.5 131t-126 74.5t-149 22.5
q-79 0 -146.5 -23t-125.5 -75.5t-99 -131.5t-64.5 -197t-23.5 -267q0 -153 23.5 -272t64 -198t99.5 -130t126 -73t146 -22z" />
    <glyph glyph-name="one" unicode="1" horiz-adv-x="1171" 
d="M1060 0h-1011v168l466 -1v1298l-438 -284l1 192l442 286h168v-1491h372v-168z" />
    <glyph glyph-name="two" unicode="2" horiz-adv-x="1253" 
d="M621 1692q267 0 402 -137.5t135 -364.5q0 -388 -451 -493q-33 -8 -93 -20q-61 -12 -89.5 -19.5t-72 -24t-62 -37t-44 -56.5t-35 -86t-17 -121t-7.5 -166h894v-167h-1061q0 42 -1.5 80.5t-1.5 86.5q0 136 11.5 233t43 167.5t66.5 114.5t104 78t131 52.5t171 42.5
q74 17 130.5 39t94 50t61.5 57.5t37 67.5t17.5 73t4.5 81q0 124 -88 212.5t-240 88.5q-77 0 -145.5 -15t-130 -47t-100.5 -90.5t-47 -136.5h-166q12 199 158 328t391 129z" />
    <glyph glyph-name="three" unicode="3" horiz-adv-x="1198" 
d="M783 926q7 -1 19 -3t47.5 -13.5t67.5 -28.5t71 -51.5t67 -78t47.5 -112.5t19.5 -151q0 -256 -143 -388.5t-402 -132.5q-234 0 -375.5 124t-154.5 343h166q40 -170 129 -235.5t279 -65.5q162 0 247 104.5t85 276.5q0 55 -21.5 108.5t-64.5 100.5t-116.5 81t-168.5 44v148
q136 20 204 83t68 157q0 288 -293 288q-110 0 -173.5 -51t-92.5 -157h-164q13 168 126 272t304 104q115 0 206 -35.5t145.5 -95.5t82.5 -132.5t28 -152.5q0 -66 -13 -120.5t-34.5 -90t-47 -62.5t-51 -41t-47 -23t-34.5 -11z" />
    <glyph glyph-name="four" unicode="4" horiz-adv-x="1347" 
d="M1318 481h-235v-481h-168v481h-804v199l740 979h232v-1010h235v-168zM915 649v878l-667 -878h667z" />
    <glyph glyph-name="five" unicode="5" horiz-adv-x="1187" 
d="M615 -31q-96 -7 -190.5 18.5t-170 76.5t-122 131.5t-46.5 175.5h177q0 -36 19.5 -76t57 -77t104.5 -60t151 -20q173 6 263 116.5t90 303.5q0 155 -89.5 250t-251.5 96q-78 1 -137.5 -14t-95 -41.5t-55 -57t-26.5 -67.5h-160v936h918v-168h-761v-557q3 5 9 13.5t32.5 30
t60 38t95.5 30t136 13.5q146 0 257 -65.5t169 -179t58 -256.5q0 -126 -28 -226t-74.5 -164.5t-111.5 -109t-132.5 -64.5t-145.5 -26z" />
    <glyph glyph-name="six" unicode="6" horiz-adv-x="1179" 
d="M612 1693q375 0 428 -358h-160q-27 101 -101 148.5t-168 41.5q-147 -11 -229.5 -109t-114.5 -306q-14 -92 -20.5 -174t-5.5 -118l1 -35q3 9 9.5 25t37 56t72.5 71t121 56t177 25q97 0 176 -35t127.5 -88.5t81 -121.5t45.5 -129t13 -117q0 -138 -40.5 -247.5t-106 -174.5
t-141 -99t-152.5 -36q-66 -2 -123.5 6t-117 30.5t-107.5 60t-91 99t-72 143t-46 196.5t-17 256q0 445 120 680q128 254 404 254zM641 852q-164 0 -263.5 -86t-102.5 -213q-5 -223 85.5 -323t291.5 -90q99 5 170 62.5t102 146t25 193.5q-7 129 -90 219.5t-218 90.5z" />
    <glyph glyph-name="seven" unicode="7" horiz-adv-x="1368" 
d="M1258 1659v-169v0q-129 -122 -233.5 -283.5t-170 -319.5t-110 -324t-62.5 -300t-18 -245l1 -18h-166v18q0 145 32 332.5t92 392t164 406t233 341.5h-909v169h1147z" />
    <glyph glyph-name="eight" unicode="8" horiz-adv-x="1304" 
d="M961 952q129 -64 199.5 -182.5t70.5 -276.5q0 -112 -33.5 -203t-89.5 -150t-132 -99t-157 -57t-168 -17q-264 0 -421.5 143t-157.5 383q0 247 171 391q46 38 103 67q-75 56 -115.5 139t-40.5 186q0 194 136 309q127 107 325 107q210 0 335.5 -113t125.5 -303
q0 -209 -147 -321q-1 -1 -4 -3zM651 1528q-51 0 -100.5 -14t-94.5 -42t-72.5 -79t-27.5 -117q0 -54 16 -97t43.5 -69.5t58 -44.5t66.5 -26.5t61.5 -11.5t49.5 -3q130 0 211.5 66.5t81.5 185.5q0 64 -23.5 113t-56.5 74.5t-76.5 41t-75 19.5t-61.5 4zM651 133
q187 0 299.5 94.5t112.5 265.5q0 31 -8.5 70t-36 92.5t-70 95.5t-120 72t-177.5 30q-73 0 -142 -19.5t-131 -60t-100 -113t-38 -167.5q0 -69 18.5 -125t47 -92.5t68.5 -64t77.5 -42t79.5 -23.5t69 -11t51 -2z" />
    <glyph glyph-name="nine" unicode="9" horiz-adv-x="1210" 
d="M581 -33q-105 0 -185.5 26.5t-132 76.5t-81.5 112.5t-42 142.5h165q28 -101 104 -148.5t174 -41.5q152 11 237 109t118 306q15 92 21.5 174t5.5 118l-1 35q-1 -5 -4.5 -13.5t-18 -32.5t-33.5 -46t-54 -49t-77 -46t-106 -32.5t-137 -13.5q-100 0 -181.5 35t-131.5 88.5
t-84 121.5t-47.5 129t-13.5 117q0 111 27.5 204.5t73 157t105.5 108t122.5 65t125.5 22.5q68 2 127.5 -6t121 -30.5t111 -60t94 -99t74 -143t47 -196.5t17.5 -256q0 -444 -124 -681q-132 -253 -417 -253zM552 808q169 0 271.5 86t105.5 213q5 223 -88 323t-300 90
q-102 -5 -175.5 -62.5t-105.5 -146t-26 -193.5q8 -129 93 -219.5t225 -90.5z" />
    <glyph glyph-name="colon" unicode=":" horiz-adv-x="352" 
d="M285 0h-219v225h219v-225zM285 845h-219v226h219v-226z" />
    <glyph glyph-name="semicolon" unicode=";" horiz-adv-x="352" 
d="M286 846h-220v225h220v-225zM66 0v226h220v-226q-1 -107 -78 -163.5t-175 -33.5v71q71 -18 122.5 20t56.5 106h-146z" />
    <glyph glyph-name="less" unicode="&#x3c;" horiz-adv-x="1441" 
d="M214 838l1172 -473v-179l-1351 549v206l1351 548v-178z" />
    <glyph glyph-name="equal" unicode="=" horiz-adv-x="978" 
d="M921 1021h-864v163h864v-163zM921 625h-864v162h864v-162z" />
    <glyph glyph-name="greater" unicode="&#x3e;" horiz-adv-x="1441" 
d="M55 365l1172 473l-1172 473v178l1351 -548v-206l-1351 -549v179z" />
    <glyph glyph-name="question" unicode="?" horiz-adv-x="1124" 
d="M672 0h-220v225h220v-225zM609 1691q215 0 339.5 -114t124.5 -284q0 -110 -23.5 -194.5t-60.5 -136.5t-82 -94t-90.5 -78.5t-82.5 -77.5t-60.5 -103.5t-23.5 -144.5h-174q0 100 23.5 178t61.5 127.5t83.5 90t91 76.5t83.5 75t61.5 96.5t23.5 131.5q0 136 -70.5 211
t-217.5 75q-304 0 -339 -301q-30 0 -69 0.5t-66.5 1t-30.5 0.5q6 73 22.5 136t53.5 125.5t91 106t138.5 70.5t192.5 27z" />
    <glyph glyph-name="at" unicode="@" horiz-adv-x="1884" 
d="M1149 1207h162q-31 -382 -31 -541q0 -56 44 -91t111 -35q110 0 178 80q82 96 82 272q0 44 -4.5 90t-22 116.5t-46.5 132.5t-84 128t-128.5 113t-186 77t-250.5 30q-149 0 -292.5 -62.5t-249.5 -164.5t-170.5 -240t-64.5 -282q0 -113 31.5 -221t96 -204t155 -168.5
t218.5 -114.5t276 -42q143 0 249.5 38.5t203.5 125.5h185q-123 -133 -288.5 -205t-349.5 -72q-204 0 -372.5 61.5t-285.5 173t-181 272.5t-64 356q0 172 73 331t194.5 275.5t288.5 186t347 69.5q165 0 304 -42t235.5 -113.5t165 -167.5t102 -202.5t36.5 -220.5
q9 -272 -125 -409q-118 -121 -305 -121q-57 0 -105 18.5t-76 44.5t-47.5 52t-27.5 45l-7 18q-1 -5 -5 -14t-22.5 -31t-45 -39t-78 -31t-117.5 -14q-153 0 -258.5 103.5t-105.5 265.5q0 92 33.5 169.5t88.5 128t124 79t141 28.5q63 0 113 -14.5t76 -35t43 -41t22 -34.5l5 -15
zM885 589q94 0 161.5 63t67.5 182q0 110 -63 177.5t-166 67.5q-101 0 -165 -68.5t-64 -176.5q0 -119 67.5 -182t161.5 -63z" />
    <glyph glyph-name="A" unicode="A" horiz-adv-x="1431" 
d="M1081 477h-732l-169 -477h-177l620 1659h187l620 -1659h-179zM717 1503l-309 -865h615z" />
    <glyph glyph-name="A" unicode="&#xe5;" horiz-adv-x="1431" 
d="M1081 477h-732l-169 -477h-177l620 1659h187l620 -1659h-179zM717 1503l-309 -865h615z" />
    <glyph glyph-name="A" unicode="&#xe4;" horiz-adv-x="1431" 
d="M1081 477h-732l-169 -477h-177l620 1659h187l620 -1659h-179zM717 1503l-309 -865h615z" />
    <glyph glyph-name="A" unicode="&#xe3;" horiz-adv-x="1431" 
d="M1081 477h-732l-169 -477h-177l620 1659h187l620 -1659h-179zM717 1503l-309 -865h615z" />
    <glyph glyph-name="A" unicode="&#xe2;" horiz-adv-x="1431" 
d="M1081 477h-732l-169 -477h-177l620 1659h187l620 -1659h-179zM717 1503l-309 -865h615z" />
    <glyph glyph-name="A" unicode="&#xe1;" horiz-adv-x="1431" 
d="M1081 477h-732l-169 -477h-177l620 1659h187l620 -1659h-179zM717 1503l-309 -865h615z" />
    <glyph glyph-name="A" unicode="&#xe0;" horiz-adv-x="1431" 
d="M1081 477h-732l-169 -477h-177l620 1659h187l620 -1659h-179zM717 1503l-309 -865h615z" />
    <glyph glyph-name="A" unicode="&#xc5;" horiz-adv-x="1431" 
d="M1081 477h-732l-169 -477h-177l620 1659h187l620 -1659h-179zM717 1503l-309 -865h615z" />
    <glyph glyph-name="A" unicode="&#xc4;" horiz-adv-x="1431" 
d="M1081 477h-732l-169 -477h-177l620 1659h187l620 -1659h-179zM717 1503l-309 -865h615z" />
    <glyph glyph-name="A" unicode="&#xc3;" horiz-adv-x="1431" 
d="M1081 477h-732l-169 -477h-177l620 1659h187l620 -1659h-179zM717 1503l-309 -865h615z" />
    <glyph glyph-name="A" unicode="&#xc2;" horiz-adv-x="1431" 
d="M1081 477h-732l-169 -477h-177l620 1659h187l620 -1659h-179zM717 1503l-309 -865h615z" />
    <glyph glyph-name="A" unicode="&#xc1;" horiz-adv-x="1431" 
d="M1081 477h-732l-169 -477h-177l620 1659h187l620 -1659h-179zM717 1503l-309 -865h615z" />
    <glyph glyph-name="A" unicode="&#xc0;" horiz-adv-x="1431" 
d="M1081 477h-732l-169 -477h-177l620 1659h187l620 -1659h-179zM717 1503l-309 -865h615z" />
    <glyph glyph-name="A" unicode="a" horiz-adv-x="1431" 
d="M1081 477h-732l-169 -477h-177l620 1659h187l620 -1659h-179zM717 1503l-309 -865h615z" />
    <glyph glyph-name="B" unicode="B" horiz-adv-x="1376" 
d="M999 857q88 -13 151 -54t97 -101.5t49 -125.5t15 -139q0 -205 -136.5 -321t-414.5 -116h-649v1658h627q105 0 195 -39t150 -103.5t93.5 -149t33.5 -174.5q0 -44 -11 -91t-34 -95.5t-66 -88.5t-100 -60zM689 1494h-411v-564h410q179 0 265.5 63t86.5 216q0 130 -90 207.5
t-261 77.5zM791 162q166 0 259.5 69.5t93.5 218.5q0 131 -97.5 224t-260.5 93h-508v-605h513z" />
    <glyph glyph-name="B" unicode="b" horiz-adv-x="1376" 
d="M999 857q88 -13 151 -54t97 -101.5t49 -125.5t15 -139q0 -205 -136.5 -321t-414.5 -116h-649v1658h627q105 0 195 -39t150 -103.5t93.5 -149t33.5 -174.5q0 -44 -11 -91t-34 -95.5t-66 -88.5t-100 -60zM689 1494h-411v-564h410q179 0 265.5 63t86.5 216q0 130 -90 207.5
t-261 77.5zM791 162q166 0 259.5 69.5t93.5 218.5q0 131 -97.5 224t-260.5 93h-508v-605h513z" />
    <glyph glyph-name="C" unicode="C" 
d="M1423 604h172q-24 -135 -80 -244t-129.5 -181.5t-166 -121t-188 -69.5t-197.5 -21q-235 0 -412 106t-273 301.5t-96 455.5q0 407 231 643q103 106 245.5 162.5t304.5 56.5q291 0 488.5 -158t262.5 -439h-173q-32 114 -92.5 199t-139.5 134t-165 72.5t-181 23.5
q-93 0 -179 -24t-166 -77.5t-139 -132.5t-94 -197t-35 -263q0 -149 35 -269t94 -198t139 -130.5t165.5 -75t179.5 -22.5q235 0 387 121t202 348z" />
    <glyph glyph-name="C" unicode="&#xe7;" 
d="M1423 604h172q-24 -135 -80 -244t-129.5 -181.5t-166 -121t-188 -69.5t-197.5 -21q-235 0 -412 106t-273 301.5t-96 455.5q0 407 231 643q103 106 245.5 162.5t304.5 56.5q291 0 488.5 -158t262.5 -439h-173q-32 114 -92.5 199t-139.5 134t-165 72.5t-181 23.5
q-93 0 -179 -24t-166 -77.5t-139 -132.5t-94 -197t-35 -263q0 -149 35 -269t94 -198t139 -130.5t165.5 -75t179.5 -22.5q235 0 387 121t202 348z" />
    <glyph glyph-name="C" unicode="&#xc7;" 
d="M1423 604h172q-24 -135 -80 -244t-129.5 -181.5t-166 -121t-188 -69.5t-197.5 -21q-235 0 -412 106t-273 301.5t-96 455.5q0 407 231 643q103 106 245.5 162.5t304.5 56.5q291 0 488.5 -158t262.5 -439h-173q-32 114 -92.5 199t-139.5 134t-165 72.5t-181 23.5
q-93 0 -179 -24t-166 -77.5t-139 -132.5t-94 -197t-35 -263q0 -149 35 -269t94 -198t139 -130.5t165.5 -75t179.5 -22.5q235 0 387 121t202 348z" />
    <glyph glyph-name="C" unicode="c" 
d="M1423 604h172q-24 -135 -80 -244t-129.5 -181.5t-166 -121t-188 -69.5t-197.5 -21q-235 0 -412 106t-273 301.5t-96 455.5q0 407 231 643q103 106 245.5 162.5t304.5 56.5q291 0 488.5 -158t262.5 -439h-173q-32 114 -92.5 199t-139.5 134t-165 72.5t-181 23.5
q-93 0 -179 -24t-166 -77.5t-139 -132.5t-94 -197t-35 -263q0 -149 35 -269t94 -198t139 -130.5t165.5 -75t179.5 -22.5q235 0 387 121t202 348z" />
    <glyph glyph-name="D" unicode="D" horiz-adv-x="1546" 
d="M1499 829q0 -168 -62 -321.5t-167 -264.5t-250 -177t-304 -66h-605v1659h605q212 0 392.5 -111.5t285.5 -302.5t105 -416zM278 1498v-1337h416q151 0 290 76t233.5 214.5t110.5 308.5l1 8v1v4v3v2q2 30 2 51v13v5v1v2q-5 179 -97 329.5t-236 234.5t-304 84h-416z" />
    <glyph glyph-name="D" unicode="d" horiz-adv-x="1546" 
d="M1499 829q0 -168 -62 -321.5t-167 -264.5t-250 -177t-304 -66h-605v1659h605q212 0 392.5 -111.5t285.5 -302.5t105 -416zM278 1498v-1337h416q151 0 290 76t233.5 214.5t110.5 308.5l1 8v1v4v3v2q2 30 2 51v13v5v1v2q-5 179 -97 329.5t-236 234.5t-304 84h-416z" />
    <glyph glyph-name="E" unicode="E" horiz-adv-x="1335" 
d="M278 1497v-527h796v-161l-796 3v-651h946v-161h-1113v1658h1113v-161h-946z" />
    <glyph glyph-name="E" unicode="&#xeb;" horiz-adv-x="1335" 
d="M278 1497v-527h796v-161l-796 3v-651h946v-161h-1113v1658h1113v-161h-946z" />
    <glyph glyph-name="E" unicode="&#xea;" horiz-adv-x="1335" 
d="M278 1497v-527h796v-161l-796 3v-651h946v-161h-1113v1658h1113v-161h-946z" />
    <glyph glyph-name="E" unicode="&#xe9;" horiz-adv-x="1335" 
d="M278 1497v-527h796v-161l-796 3v-651h946v-161h-1113v1658h1113v-161h-946z" />
    <glyph glyph-name="E" unicode="&#xe8;" horiz-adv-x="1335" 
d="M278 1497v-527h796v-161l-796 3v-651h946v-161h-1113v1658h1113v-161h-946z" />
    <glyph glyph-name="E" unicode="&#xcb;" horiz-adv-x="1335" 
d="M278 1497v-527h796v-161l-796 3v-651h946v-161h-1113v1658h1113v-161h-946z" />
    <glyph glyph-name="E" unicode="&#xca;" horiz-adv-x="1335" 
d="M278 1497v-527h796v-161l-796 3v-651h946v-161h-1113v1658h1113v-161h-946z" />
    <glyph glyph-name="E" unicode="&#xc9;" horiz-adv-x="1335" 
d="M278 1497v-527h796v-161l-796 3v-651h946v-161h-1113v1658h1113v-161h-946z" />
    <glyph glyph-name="E" unicode="&#xc8;" horiz-adv-x="1335" 
d="M278 1497v-527h796v-161l-796 3v-651h946v-161h-1113v1658h1113v-161h-946z" />
    <glyph glyph-name="E" unicode="e" horiz-adv-x="1335" 
d="M278 1497v-527h796v-161l-796 3v-651h946v-161h-1113v1658h1113v-161h-946z" />
    <glyph glyph-name="F" unicode="F" horiz-adv-x="1206" 
d="M1042 809h-764v-809h-167v1659h1092v-162h-925v-527h764v-161z" />
    <glyph glyph-name="F" unicode="f" horiz-adv-x="1206" 
d="M1042 809h-764v-809h-167v1659h1092v-162h-925v-527h764v-161z" />
    <glyph glyph-name="G" unicode="G" horiz-adv-x="1634" 
d="M880 656v162h673v-818h-142l-26 182q-210 -215 -551 -215q-235 0 -412 106t-273 301.5t-96 455.5q0 408 231 644q103 106 245.5 162t304.5 56q170 0 309 -55.5t246 -177t164 -301.5h-177q-35 95 -94 167.5t-132 115t-152 63t-164 20.5q-93 0 -179 -23.5t-166 -77
t-139 -132t-94 -197.5t-35 -264q0 -108 19.5 -201.5t53.5 -163t81 -126t101 -94t115.5 -63t121.5 -36.5t121 -11q74 0 144 12.5t146 48t132 91.5t92.5 151t36.5 218h-505z" />
    <glyph glyph-name="G" unicode="g" horiz-adv-x="1634" 
d="M880 656v162h673v-818h-142l-26 182q-210 -215 -551 -215q-235 0 -412 106t-273 301.5t-96 455.5q0 408 231 644q103 106 245.5 162t304.5 56q170 0 309 -55.5t246 -177t164 -301.5h-177q-35 95 -94 167.5t-132 115t-152 63t-164 20.5q-93 0 -179 -23.5t-166 -77
t-139 -132t-94 -197.5t-35 -264q0 -108 19.5 -201.5t53.5 -163t81 -126t101 -94t115.5 -63t121.5 -36.5t121 -11q74 0 144 12.5t146 48t132 91.5t92.5 151t36.5 218h-505z" />
    <glyph glyph-name="H" unicode="H" horiz-adv-x="1501" 
d="M1222 0v809h-943v-809h-168v1659h168v-688h943v688h168v-1659h-168z" />
    <glyph glyph-name="H" unicode="h" horiz-adv-x="1501" 
d="M1222 0v809h-943v-809h-168v1659h168v-688h943v688h168v-1659h-168z" />
    <glyph glyph-name="I" unicode="I" horiz-adv-x="391" 
d="M279 0h-168v1659h168v-1659z" />
    <glyph glyph-name="I" unicode="&#xef;" horiz-adv-x="391" 
d="M279 0h-168v1659h168v-1659z" />
    <glyph glyph-name="I" unicode="&#xee;" horiz-adv-x="391" 
d="M279 0h-168v1659h168v-1659z" />
    <glyph glyph-name="I" unicode="&#xed;" horiz-adv-x="391" 
d="M279 0h-168v1659h168v-1659z" />
    <glyph glyph-name="I" unicode="&#xec;" horiz-adv-x="391" 
d="M279 0h-168v1659h168v-1659z" />
    <glyph glyph-name="I" unicode="&#xcf;" horiz-adv-x="391" 
d="M279 0h-168v1659h168v-1659z" />
    <glyph glyph-name="I" unicode="&#xce;" horiz-adv-x="391" 
d="M279 0h-168v1659h168v-1659z" />
    <glyph glyph-name="I" unicode="&#xcd;" horiz-adv-x="391" 
d="M279 0h-168v1659h168v-1659z" />
    <glyph glyph-name="I" unicode="&#xcc;" horiz-adv-x="391" 
d="M279 0h-168v1659h168v-1659z" />
    <glyph glyph-name="I" unicode="i" horiz-adv-x="391" 
d="M279 0h-168v1659h168v-1659z" />
    <glyph glyph-name="J" unicode="J" horiz-adv-x="1073" 
d="M490 -33q-90 0 -158.5 12.5t-119 34t-85.5 59t-56.5 80.5t-34 106.5t-16.5 127t-4 151.5h153q0 -83 2 -128t12 -99t30 -80.5t55.5 -52t89.5 -34.5t131 -9q75 0 126.5 10.5t86.5 40t55 63t30 101.5t12.5 131t2.5 174v1003h168v-998q0 -103 -3 -175.5t-11.5 -145.5
t-23.5 -121t-40 -93.5t-60 -72t-84.5 -47.5t-112.5 -29.5t-145 -8.5z" />
    <glyph glyph-name="J" unicode="j" horiz-adv-x="1073" 
d="M490 -33q-90 0 -158.5 12.5t-119 34t-85.5 59t-56.5 80.5t-34 106.5t-16.5 127t-4 151.5h153q0 -83 2 -128t12 -99t30 -80.5t55.5 -52t89.5 -34.5t131 -9q75 0 126.5 10.5t86.5 40t55 63t30 101.5t12.5 131t2.5 174v1003h168v-998q0 -103 -3 -175.5t-11.5 -145.5
t-23.5 -121t-40 -93.5t-60 -72t-84.5 -47.5t-112.5 -29.5t-145 -8.5z" />
    <glyph glyph-name="K" unicode="K" horiz-adv-x="1419" 
d="M278 741l840 918h227l-619 -677l695 -982h-204l-606 857l-333 -364v-493h-167v1659h167v-918z" />
    <glyph glyph-name="K" unicode="k" horiz-adv-x="1419" 
d="M278 741l840 918h227l-619 -677l695 -982h-204l-606 857l-333 -364v-493h-167v1659h167v-918z" />
    <glyph glyph-name="L" unicode="L" horiz-adv-x="1208" 
d="M278 1658v-1496h936v-162h-1103v1658h167z" />
    <glyph glyph-name="L" unicode="l" horiz-adv-x="1208" 
d="M278 1658v-1496h936v-162h-1103v1658h167z" />
    <glyph glyph-name="M" unicode="M" horiz-adv-x="1859" 
d="M854 0l-574 1465v-1465h-169v1658h269l550 -1420l547 1420h271v-1658h-169v1465l-573 -1465h-152z" />
    <glyph glyph-name="M" unicode="m" horiz-adv-x="1859" 
d="M854 0l-574 1465v-1465h-169v1658h269l550 -1420l547 1420h271v-1658h-169v1465l-573 -1465h-152z" />
    <glyph glyph-name="N" unicode="N" horiz-adv-x="1689" 
d="M1344 0l-1065 1465v-1465h-168v1658h235l1064 -1464v1464h169v-1658h-235z" />
    <glyph glyph-name="N" unicode="&#xf1;" horiz-adv-x="1689" 
d="M1344 0l-1065 1465v-1465h-168v1658h235l1064 -1464v1464h169v-1658h-235z" />
    <glyph glyph-name="N" unicode="&#xd1;" horiz-adv-x="1689" 
d="M1344 0l-1065 1465v-1465h-168v1658h235l1064 -1464v1464h169v-1658h-235z" />
    <glyph glyph-name="N" unicode="n" horiz-adv-x="1689" 
d="M1344 0l-1065 1465v-1465h-168v1658h235l1064 -1464v1464h169v-1658h-235z" />
    <glyph glyph-name="O" unicode="O" horiz-adv-x="1671" 
d="M834 1692q357 0 568.5 -232.5t211.5 -630.5q0 -184 -45.5 -333t-120.5 -246t-177 -162.5t-210.5 -93.5t-226.5 -28q-235 0 -412 106t-273 301.5t-96 455.5q0 408 231 644q103 106 245.5 162.5t304.5 56.5zM834 135q289 0 450.5 181.5t161.5 512.5q0 150 -35 270
t-93.5 198t-138.5 130t-165.5 74t-179.5 22q-93 0 -179 -24t-166 -77.5t-139 -132.5t-94 -197t-35 -263q0 -149 35 -268.5t94 -198t139 -130.5t165.5 -74.5t179.5 -22.5z" />
    <glyph glyph-name="O" unicode="&#xf8;" horiz-adv-x="1671" 
d="M834 1692q357 0 568.5 -232.5t211.5 -630.5q0 -184 -45.5 -333t-120.5 -246t-177 -162.5t-210.5 -93.5t-226.5 -28q-235 0 -412 106t-273 301.5t-96 455.5q0 408 231 644q103 106 245.5 162.5t304.5 56.5zM834 135q289 0 450.5 181.5t161.5 512.5q0 150 -35 270
t-93.5 198t-138.5 130t-165.5 74t-179.5 22q-93 0 -179 -24t-166 -77.5t-139 -132.5t-94 -197t-35 -263q0 -149 35 -268.5t94 -198t139 -130.5t165.5 -74.5t179.5 -22.5z" />
    <glyph glyph-name="O" unicode="&#xf6;" horiz-adv-x="1671" 
d="M834 1692q357 0 568.5 -232.5t211.5 -630.5q0 -184 -45.5 -333t-120.5 -246t-177 -162.5t-210.5 -93.5t-226.5 -28q-235 0 -412 106t-273 301.5t-96 455.5q0 408 231 644q103 106 245.5 162.5t304.5 56.5zM834 135q289 0 450.5 181.5t161.5 512.5q0 150 -35 270
t-93.5 198t-138.5 130t-165.5 74t-179.5 22q-93 0 -179 -24t-166 -77.5t-139 -132.5t-94 -197t-35 -263q0 -149 35 -268.5t94 -198t139 -130.5t165.5 -74.5t179.5 -22.5z" />
    <glyph glyph-name="O" unicode="&#xf5;" horiz-adv-x="1671" 
d="M834 1692q357 0 568.5 -232.5t211.5 -630.5q0 -184 -45.5 -333t-120.5 -246t-177 -162.5t-210.5 -93.5t-226.5 -28q-235 0 -412 106t-273 301.5t-96 455.5q0 408 231 644q103 106 245.5 162.5t304.5 56.5zM834 135q289 0 450.5 181.5t161.5 512.5q0 150 -35 270
t-93.5 198t-138.5 130t-165.5 74t-179.5 22q-93 0 -179 -24t-166 -77.5t-139 -132.5t-94 -197t-35 -263q0 -149 35 -268.5t94 -198t139 -130.5t165.5 -74.5t179.5 -22.5z" />
    <glyph glyph-name="O" unicode="&#xf4;" horiz-adv-x="1671" 
d="M834 1692q357 0 568.5 -232.5t211.5 -630.5q0 -184 -45.5 -333t-120.5 -246t-177 -162.5t-210.5 -93.5t-226.5 -28q-235 0 -412 106t-273 301.5t-96 455.5q0 408 231 644q103 106 245.5 162.5t304.5 56.5zM834 135q289 0 450.5 181.5t161.5 512.5q0 150 -35 270
t-93.5 198t-138.5 130t-165.5 74t-179.5 22q-93 0 -179 -24t-166 -77.5t-139 -132.5t-94 -197t-35 -263q0 -149 35 -268.5t94 -198t139 -130.5t165.5 -74.5t179.5 -22.5z" />
    <glyph glyph-name="O" unicode="&#xf2;" horiz-adv-x="1671" 
d="M834 1692q357 0 568.5 -232.5t211.5 -630.5q0 -184 -45.5 -333t-120.5 -246t-177 -162.5t-210.5 -93.5t-226.5 -28q-235 0 -412 106t-273 301.5t-96 455.5q0 408 231 644q103 106 245.5 162.5t304.5 56.5zM834 135q289 0 450.5 181.5t161.5 512.5q0 150 -35 270
t-93.5 198t-138.5 130t-165.5 74t-179.5 22q-93 0 -179 -24t-166 -77.5t-139 -132.5t-94 -197t-35 -263q0 -149 35 -268.5t94 -198t139 -130.5t165.5 -74.5t179.5 -22.5z" />
    <glyph glyph-name="O" unicode="&#xd8;" horiz-adv-x="1671" 
d="M834 1692q357 0 568.5 -232.5t211.5 -630.5q0 -184 -45.5 -333t-120.5 -246t-177 -162.5t-210.5 -93.5t-226.5 -28q-235 0 -412 106t-273 301.5t-96 455.5q0 408 231 644q103 106 245.5 162.5t304.5 56.5zM834 135q289 0 450.5 181.5t161.5 512.5q0 150 -35 270
t-93.5 198t-138.5 130t-165.5 74t-179.5 22q-93 0 -179 -24t-166 -77.5t-139 -132.5t-94 -197t-35 -263q0 -149 35 -268.5t94 -198t139 -130.5t165.5 -74.5t179.5 -22.5z" />
    <glyph glyph-name="O" unicode="&#xd6;" horiz-adv-x="1671" 
d="M834 1692q357 0 568.5 -232.5t211.5 -630.5q0 -184 -45.5 -333t-120.5 -246t-177 -162.5t-210.5 -93.5t-226.5 -28q-235 0 -412 106t-273 301.5t-96 455.5q0 408 231 644q103 106 245.5 162.5t304.5 56.5zM834 135q289 0 450.5 181.5t161.5 512.5q0 150 -35 270
t-93.5 198t-138.5 130t-165.5 74t-179.5 22q-93 0 -179 -24t-166 -77.5t-139 -132.5t-94 -197t-35 -263q0 -149 35 -268.5t94 -198t139 -130.5t165.5 -74.5t179.5 -22.5z" />
    <glyph glyph-name="O" unicode="&#xd5;" horiz-adv-x="1671" 
d="M834 1692q357 0 568.5 -232.5t211.5 -630.5q0 -184 -45.5 -333t-120.5 -246t-177 -162.5t-210.5 -93.5t-226.5 -28q-235 0 -412 106t-273 301.5t-96 455.5q0 408 231 644q103 106 245.5 162.5t304.5 56.5zM834 135q289 0 450.5 181.5t161.5 512.5q0 150 -35 270
t-93.5 198t-138.5 130t-165.5 74t-179.5 22q-93 0 -179 -24t-166 -77.5t-139 -132.5t-94 -197t-35 -263q0 -149 35 -268.5t94 -198t139 -130.5t165.5 -74.5t179.5 -22.5z" />
    <glyph glyph-name="O" unicode="&#xd4;" horiz-adv-x="1671" 
d="M834 1692q357 0 568.5 -232.5t211.5 -630.5q0 -184 -45.5 -333t-120.5 -246t-177 -162.5t-210.5 -93.5t-226.5 -28q-235 0 -412 106t-273 301.5t-96 455.5q0 408 231 644q103 106 245.5 162.5t304.5 56.5zM834 135q289 0 450.5 181.5t161.5 512.5q0 150 -35 270
t-93.5 198t-138.5 130t-165.5 74t-179.5 22q-93 0 -179 -24t-166 -77.5t-139 -132.5t-94 -197t-35 -263q0 -149 35 -268.5t94 -198t139 -130.5t165.5 -74.5t179.5 -22.5z" />
    <glyph glyph-name="O" unicode="&#xd2;" horiz-adv-x="1671" 
d="M834 1692q357 0 568.5 -232.5t211.5 -630.5q0 -184 -45.5 -333t-120.5 -246t-177 -162.5t-210.5 -93.5t-226.5 -28q-235 0 -412 106t-273 301.5t-96 455.5q0 408 231 644q103 106 245.5 162.5t304.5 56.5zM834 135q289 0 450.5 181.5t161.5 512.5q0 150 -35 270
t-93.5 198t-138.5 130t-165.5 74t-179.5 22q-93 0 -179 -24t-166 -77.5t-139 -132.5t-94 -197t-35 -263q0 -149 35 -268.5t94 -198t139 -130.5t165.5 -74.5t179.5 -22.5z" />
    <glyph glyph-name="O" unicode="o" horiz-adv-x="1671" 
d="M834 1692q357 0 568.5 -232.5t211.5 -630.5q0 -184 -45.5 -333t-120.5 -246t-177 -162.5t-210.5 -93.5t-226.5 -28q-235 0 -412 106t-273 301.5t-96 455.5q0 408 231 644q103 106 245.5 162.5t304.5 56.5zM834 135q289 0 450.5 181.5t161.5 512.5q0 150 -35 270
t-93.5 198t-138.5 130t-165.5 74t-179.5 22q-93 0 -179 -24t-166 -77.5t-139 -132.5t-94 -197t-35 -263q0 -149 35 -268.5t94 -198t139 -130.5t165.5 -74.5t179.5 -22.5z" />
    <glyph glyph-name="P" unicode="P" horiz-adv-x="1351" 
d="M784 1658q127 0 232.5 -43t172 -113t102.5 -156.5t36 -176.5q0 -91 -35.5 -176t-101.5 -153.5t-171.5 -110t-234.5 -41.5h-502v-688h-171v1657zM817 856q62 0 122 20t110 57.5t80.5 98.5t30.5 137t-31 138.5t-81 101.5t-110 60t-121 21h-535v-634h535z" />
    <glyph glyph-name="P" unicode="p" horiz-adv-x="1351" 
d="M784 1658q127 0 232.5 -43t172 -113t102.5 -156.5t36 -176.5q0 -91 -35.5 -176t-101.5 -153.5t-171.5 -110t-234.5 -41.5h-502v-688h-171v1657zM817 856q62 0 122 20t110 57.5t80.5 98.5t30.5 137t-31 138.5t-81 101.5t-110 60t-121 21h-535v-634h535z" />
    <glyph glyph-name="Q" unicode="Q" horiz-adv-x="1673" 
d="M1614 829q0 -450 -260 -680l150 -168l-127 -112l-164 185q-170 -88 -379 -88q-235 0 -412 106t-273 301.5t-96 455.5q0 408 231 644q103 106 245.5 162.5t304.5 56.5q357 0 568.5 -232.5t211.5 -630.5zM834 135q146 0 264 49l-264 298l126 111l283 -318q203 181 203 554
q0 150 -35 270t-93.5 198t-138.5 130t-165.5 74t-179.5 22q-93 0 -179 -24t-166 -77.5t-139 -132.5t-94 -197t-35 -263q0 -149 35 -268.5t94 -198t139 -130.5t165.5 -74.5t179.5 -22.5z" />
    <glyph glyph-name="Q" unicode="q" horiz-adv-x="1673" 
d="M1614 829q0 -450 -260 -680l150 -168l-127 -112l-164 185q-170 -88 -379 -88q-235 0 -412 106t-273 301.5t-96 455.5q0 408 231 644q103 106 245.5 162.5t304.5 56.5q357 0 568.5 -232.5t211.5 -630.5zM834 135q146 0 264 49l-264 298l126 111l283 -318q203 181 203 554
q0 150 -35 270t-93.5 198t-138.5 130t-165.5 74t-179.5 22q-93 0 -179 -24t-166 -77.5t-139 -132.5t-94 -197t-35 -263q0 -149 35 -268.5t94 -198t139 -130.5t165.5 -74.5t179.5 -22.5z" />
    <glyph glyph-name="R" unicode="R" horiz-adv-x="1411" 
d="M970 724l403 -724h-197l-400 724h194zM1338 1190q0 -72 -14 -134t-37 -107t-55.5 -82t-65.5 -61t-70 -41.5t-67 -26.5t-59 -14h-562h-126v-724h-171v1656l684 1q67 0 137.5 -14.5t144 -50t131 -87t94 -133.5t36.5 -182zM828 892q173 0 257.5 71.5t84.5 226.5
q0 129 -102 212.5t-240 83.5h-546v-594h546z" />
    <glyph glyph-name="R" unicode="r" horiz-adv-x="1411" 
d="M970 724l403 -724h-197l-400 724h194zM1338 1190q0 -72 -14 -134t-37 -107t-55.5 -82t-65.5 -61t-70 -41.5t-67 -26.5t-59 -14h-562h-126v-724h-171v1656l684 1q67 0 137.5 -14.5t144 -50t131 -87t94 -133.5t36.5 -182zM828 892q173 0 257.5 71.5t84.5 226.5
q0 129 -102 212.5t-240 83.5h-546v-594h546z" />
    <glyph glyph-name="S" unicode="S" horiz-adv-x="1298" 
d="M258 1247q0 -78 34 -134t91 -87.5t131.5 -53t157 -37.5t164.5 -35t156.5 -51.5t131.5 -79.5t91 -126.5t34 -186.5q0 -68 -19 -134t-64.5 -131.5t-112.5 -114.5t-171.5 -79.5t-233.5 -30.5q-115 0 -214.5 31.5t-169.5 84t-119.5 121t-73.5 142.5t-24 148h168
q0 -66 31 -130t87 -115t142.5 -82.5t189.5 -31.5q110 0 193 28.5t130.5 77.5t70.5 108.5t23 127.5q0 75 -34 127.5t-91.5 82t-132 49.5t-156.5 35.5t-164 34t-156.5 51.5t-132 80.5t-91.5 128.5t-34 189q0 92 37 171.5t105.5 139t173.5 93.5t234 34q244 0 389.5 -136
t145.5 -353h-168q0 140 -99.5 230t-267.5 90q-173 0 -277.5 -72t-104.5 -204z" />
    <glyph glyph-name="S" unicode="s" horiz-adv-x="1298" 
d="M258 1247q0 -78 34 -134t91 -87.5t131.5 -53t157 -37.5t164.5 -35t156.5 -51.5t131.5 -79.5t91 -126.5t34 -186.5q0 -68 -19 -134t-64.5 -131.5t-112.5 -114.5t-171.5 -79.5t-233.5 -30.5q-115 0 -214.5 31.5t-169.5 84t-119.5 121t-73.5 142.5t-24 148h168
q0 -66 31 -130t87 -115t142.5 -82.5t189.5 -31.5q110 0 193 28.5t130.5 77.5t70.5 108.5t23 127.5q0 75 -34 127.5t-91.5 82t-132 49.5t-156.5 35.5t-164 34t-156.5 51.5t-132 80.5t-91.5 128.5t-34 189q0 92 37 171.5t105.5 139t173.5 93.5t234 34q244 0 389.5 -136
t145.5 -353h-168q0 140 -99.5 230t-267.5 90q-173 0 -277.5 -72t-104.5 -204z" />
    <glyph glyph-name="T" unicode="T" horiz-adv-x="1583" 
d="M1588 1497h-693v-1497h-168v1497h-694v162h1555v-162z" />
    <glyph glyph-name="T" unicode="t" horiz-adv-x="1583" 
d="M1588 1497h-693v-1497h-168v1497h-694v162h1555v-162z" />
    <glyph glyph-name="U" unicode="U" horiz-adv-x="1490" 
d="M1229 612v1047h168v-1014q0 -56 -6 -111.5t-23.5 -125t-46.5 -129t-79.5 -118.5t-117 -101t-164.5 -67.5t-216 -25.5t-216 25.5t-164 67.5t-116.5 101t-79.5 118.5t-46.5 129t-23.5 125t-6 111.5v1014h168v-1047q0 -224 124 -350.5t360 -126.5q239 0 362 126.5t123 350.5
z" />
    <glyph glyph-name="U" unicode="&#xfc;" horiz-adv-x="1490" 
d="M1229 612v1047h168v-1014q0 -56 -6 -111.5t-23.5 -125t-46.5 -129t-79.5 -118.5t-117 -101t-164.5 -67.5t-216 -25.5t-216 25.5t-164 67.5t-116.5 101t-79.5 118.5t-46.5 129t-23.5 125t-6 111.5v1014h168v-1047q0 -224 124 -350.5t360 -126.5q239 0 362 126.5t123 350.5
z" />
    <glyph glyph-name="U" unicode="&#xfb;" horiz-adv-x="1490" 
d="M1229 612v1047h168v-1014q0 -56 -6 -111.5t-23.5 -125t-46.5 -129t-79.5 -118.5t-117 -101t-164.5 -67.5t-216 -25.5t-216 25.5t-164 67.5t-116.5 101t-79.5 118.5t-46.5 129t-23.5 125t-6 111.5v1014h168v-1047q0 -224 124 -350.5t360 -126.5q239 0 362 126.5t123 350.5
z" />
    <glyph glyph-name="U" unicode="&#xfa;" horiz-adv-x="1490" 
d="M1229 612v1047h168v-1014q0 -56 -6 -111.5t-23.5 -125t-46.5 -129t-79.5 -118.5t-117 -101t-164.5 -67.5t-216 -25.5t-216 25.5t-164 67.5t-116.5 101t-79.5 118.5t-46.5 129t-23.5 125t-6 111.5v1014h168v-1047q0 -224 124 -350.5t360 -126.5q239 0 362 126.5t123 350.5
z" />
    <glyph glyph-name="U" unicode="&#xf9;" horiz-adv-x="1490" 
d="M1229 612v1047h168v-1014q0 -56 -6 -111.5t-23.5 -125t-46.5 -129t-79.5 -118.5t-117 -101t-164.5 -67.5t-216 -25.5t-216 25.5t-164 67.5t-116.5 101t-79.5 118.5t-46.5 129t-23.5 125t-6 111.5v1014h168v-1047q0 -224 124 -350.5t360 -126.5q239 0 362 126.5t123 350.5
z" />
    <glyph glyph-name="U" unicode="&#xdc;" horiz-adv-x="1490" 
d="M1229 612v1047h168v-1014q0 -56 -6 -111.5t-23.5 -125t-46.5 -129t-79.5 -118.5t-117 -101t-164.5 -67.5t-216 -25.5t-216 25.5t-164 67.5t-116.5 101t-79.5 118.5t-46.5 129t-23.5 125t-6 111.5v1014h168v-1047q0 -224 124 -350.5t360 -126.5q239 0 362 126.5t123 350.5
z" />
    <glyph glyph-name="U" unicode="&#xdb;" horiz-adv-x="1490" 
d="M1229 612v1047h168v-1014q0 -56 -6 -111.5t-23.5 -125t-46.5 -129t-79.5 -118.5t-117 -101t-164.5 -67.5t-216 -25.5t-216 25.5t-164 67.5t-116.5 101t-79.5 118.5t-46.5 129t-23.5 125t-6 111.5v1014h168v-1047q0 -224 124 -350.5t360 -126.5q239 0 362 126.5t123 350.5
z" />
    <glyph glyph-name="U" unicode="&#xda;" horiz-adv-x="1490" 
d="M1229 612v1047h168v-1014q0 -56 -6 -111.5t-23.5 -125t-46.5 -129t-79.5 -118.5t-117 -101t-164.5 -67.5t-216 -25.5t-216 25.5t-164 67.5t-116.5 101t-79.5 118.5t-46.5 129t-23.5 125t-6 111.5v1014h168v-1047q0 -224 124 -350.5t360 -126.5q239 0 362 126.5t123 350.5
z" />
    <glyph glyph-name="U" unicode="&#xd9;" horiz-adv-x="1490" 
d="M1229 612v1047h168v-1014q0 -56 -6 -111.5t-23.5 -125t-46.5 -129t-79.5 -118.5t-117 -101t-164.5 -67.5t-216 -25.5t-216 25.5t-164 67.5t-116.5 101t-79.5 118.5t-46.5 129t-23.5 125t-6 111.5v1014h168v-1047q0 -224 124 -350.5t360 -126.5q239 0 362 126.5t123 350.5
z" />
    <glyph glyph-name="U" unicode="u" horiz-adv-x="1490" 
d="M1229 612v1047h168v-1014q0 -56 -6 -111.5t-23.5 -125t-46.5 -129t-79.5 -118.5t-117 -101t-164.5 -67.5t-216 -25.5t-216 25.5t-164 67.5t-116.5 101t-79.5 118.5t-46.5 129t-23.5 125t-6 111.5v1014h168v-1047q0 -224 124 -350.5t360 -126.5q239 0 362 126.5t123 350.5
z" />
    <glyph glyph-name="V" unicode="V" horiz-adv-x="1413" 
d="M1232 1658h179l-575 -1658h-225l-575 1658h179l509 -1464z" />
    <glyph glyph-name="V" unicode="v" horiz-adv-x="1413" 
d="M1232 1658h179l-575 -1658h-225l-575 1658h179l509 -1464z" />
    <glyph glyph-name="W" unicode="W" horiz-adv-x="2351" 
d="M2167 1659l179 -1l-502 -1658h-225l-444 1466l-444 -1466h-225l-502 1658l179 1l436 -1464l435 1464l121 -1l121 1l435 -1464z" />
    <glyph glyph-name="W" unicode="w" horiz-adv-x="2351" 
d="M2167 1659l179 -1l-502 -1658h-225l-444 1466l-444 -1466h-225l-502 1658l179 1l436 -1464l435 1464l121 -1l121 1l435 -1464z" />
    <glyph glyph-name="X" unicode="X" horiz-adv-x="1370" 
d="M1369 1658l-583 -839l568 -819h-204l-466 672l-466 -672h-204l568 818l-582 840h204l480 -692l481 692h204z" />
    <glyph glyph-name="X" unicode="x" horiz-adv-x="1370" 
d="M1369 1658l-583 -839l568 -819h-204l-466 672l-466 -672h-204l568 818l-582 840h204l480 -692l481 692h204z" />
    <glyph glyph-name="Y" unicode="Y" horiz-adv-x="1247" 
d="M1067 1658h193l-553 -988v-670h-168v670l-553 988h193l444 -791z" />
    <glyph glyph-name="Y" unicode="&#x178;" horiz-adv-x="1247" 
d="M1067 1658h193l-553 -988v-670h-168v670l-553 988h193l444 -791z" />
    <glyph glyph-name="Y" unicode="&#xff;" horiz-adv-x="1247" 
d="M1067 1658h193l-553 -988v-670h-168v670l-553 988h193l444 -791z" />
    <glyph glyph-name="Y" unicode="&#xfd;" horiz-adv-x="1247" 
d="M1067 1658h193l-553 -988v-670h-168v670l-553 988h193l444 -791z" />
    <glyph glyph-name="Y" unicode="&#xdd;" horiz-adv-x="1247" 
d="M1067 1658h193l-553 -988v-670h-168v670l-553 988h193l444 -791z" />
    <glyph glyph-name="Y" unicode="y" horiz-adv-x="1247" 
d="M1067 1658h193l-553 -988v-670h-168v670l-553 988h193l444 -791z" />
    <glyph glyph-name="Z" unicode="Z" horiz-adv-x="1409" 
d="M25 162l1134 1335h-1134v162h1357v-162l-1135 -1335h1135v-162h-1357v162z" />
    <glyph glyph-name="Z" unicode="z" horiz-adv-x="1409" 
d="M25 162l1134 1335h-1134v162h1357v-162l-1135 -1335h1135v-162h-1357v162z" />
    <glyph glyph-name="bracketleft" unicode="[" horiz-adv-x="708" 
d="M939 -430h-828v2508h828v-162h-661v-2185h661v-161z" />
    <glyph glyph-name="backslash" unicode="\" horiz-adv-x="1208" 
d="M111 1658h185l802 -1658h-185z" />
    <glyph glyph-name="bracketright" unicode="]" horiz-adv-x="708" 
d="M596 -430h-828v161h661v2185h-661v162h828v-2508z" />
    <glyph glyph-name="underscore" unicode="_" horiz-adv-x="1269" 
d="M1158 0h-1047v162h1047v-162z" />
    <glyph glyph-name="nonbreakingspace" unicode="&#xa0;" horiz-adv-x="770" 
 />
    <glyph glyph-name="sterling" unicode="&#xa3;" horiz-adv-x="1224" 
d="M659 682q-11 -63 -51.5 -120.5t-89 -101t-96 -86.5t-79.5 -97t-32 -115h754v-162h-954q0 123 31.5 222.5t80.5 163.5t99.5 112.5t98 96t66.5 87.5h-314v123h317q-14 25 -46 46.5t-67 36.5t-74.5 43t-70.5 64t-51 101t-20 152q0 206 118 325t337 119q106 0 190 -27
t138 -71t91.5 -106t55 -125.5t23.5 -135.5q-3 0 -30.5 -0.5t-66.5 -1t-69 -0.5q-35 301 -339 301q-147 0 -217.5 -75t-70.5 -211q0 -54 16.5 -94t43 -64t59.5 -43t67.5 -38t64.5 -42t53.5 -62t32.5 -92h327v-123h-326z" />
    <glyph glyph-name="yen" unicode="&#xa5;" horiz-adv-x="1441" 
d="M906 853l-102 -182v-7h342v-162h-342v-502h-168v502h-341v162h341v7l-102 182h-507v162h416l-360 644h193l444 -792l444 792h194l-361 -644h417v-162h-508z" />
    <glyph glyph-name="softhyphen" unicode="&#xad;" horiz-adv-x="0" 
 />
    <glyph glyph-name="Oacute" unicode="&#xd3;" horiz-adv-x="1671" 
d="M1155 2132l-241 -333h-201l241 333h201zM834 1692q236 0 412 -104t272 -299.5t96 -458.5q0 -184 -45.5 -333t-120.5 -246t-177 -162.5t-210.5 -93.5t-226.5 -28q-235 0 -412 106t-273 301.5t-96 455.5q0 408 231 644q103 106 245.5 162t304.5 56zM834 135
q289 0 450.5 182t161.5 513q0 150 -35 270t-93.5 198t-138.5 130t-165.5 74t-179.5 22q-93 0 -179 -24t-166 -77.5t-139 -132.5t-94 -197t-35 -263q0 -149 35 -269t94 -198t139 -130.5t165.5 -75t179.5 -22.5z" />
    <glyph glyph-name="Oacute" unicode="&#xf3;" horiz-adv-x="1671" 
d="M1155 2132l-241 -333h-201l241 333h201zM834 1692q236 0 412 -104t272 -299.5t96 -458.5q0 -184 -45.5 -333t-120.5 -246t-177 -162.5t-210.5 -93.5t-226.5 -28q-235 0 -412 106t-273 301.5t-96 455.5q0 408 231 644q103 106 245.5 162t304.5 56zM834 135
q289 0 450.5 182t161.5 513q0 150 -35 270t-93.5 198t-138.5 130t-165.5 74t-179.5 22q-93 0 -179 -24t-166 -77.5t-139 -132.5t-94 -197t-35 -263q0 -149 35 -269t94 -198t139 -130.5t165.5 -75t179.5 -22.5z" />
    <glyph glyph-name="Aogonek" unicode="&#x104;" horiz-adv-x="1427" 
d="M1221 -92q0 -24 20.5 -36.5t49.5 -13.5t58 1.5t49 6.5l21 5v-113q-7 -1 -18 -3.5t-44 -5.5t-63 -3t-66.5 7.5t-62.5 22.5t-44 45.5t-18 73.5q0 116 118 178l-143 405h-732l-171 -477h-177l620 1658h187l621 -1658h-55q-23 -2 -45 -6.5t-48 -14t-41.5 -28.5t-15.5 -44z
M403 639h617l-308 865z" />
    <glyph glyph-name="Aogonek" unicode="&#x105;" horiz-adv-x="1427" 
d="M1221 -92q0 -24 20.5 -36.5t49.5 -13.5t58 1.5t49 6.5l21 5v-113q-7 -1 -18 -3.5t-44 -5.5t-63 -3t-66.5 7.5t-62.5 22.5t-44 45.5t-18 73.5q0 116 118 178l-143 405h-732l-171 -477h-177l620 1658h187l621 -1658h-55q-23 -2 -45 -6.5t-48 -14t-41.5 -28.5t-15.5 -44z
M403 639h617l-308 865z" />
    <glyph glyph-name="Cacute" unicode="&#x106;" 
d="M1108 2132l-241 -333h-201l241 333h201zM1423 605h172q-24 -135 -80 -244.5t-129.5 -181.5t-166 -121t-188 -70t-197.5 -21q-235 0 -412 106t-273 301.5t-96 455.5q0 408 231 644q103 106 245.5 162t304.5 56q291 0 488.5 -158t262.5 -439h-173q-32 114 -92.5 199
t-139.5 134t-165 72.5t-181 23.5q-93 0 -179 -24t-166 -77.5t-139 -132.5t-94 -197t-35 -263q0 -149 35 -269t94 -198t139 -130.5t165.5 -75t179.5 -22.5q235 0 387 121.5t202 348.5z" />
    <glyph glyph-name="Cacute" unicode="&#x107;" 
d="M1108 2132l-241 -333h-201l241 333h201zM1423 605h172q-24 -135 -80 -244.5t-129.5 -181.5t-166 -121t-188 -70t-197.5 -21q-235 0 -412 106t-273 301.5t-96 455.5q0 408 231 644q103 106 245.5 162t304.5 56q291 0 488.5 -158t262.5 -439h-173q-32 114 -92.5 199
t-139.5 134t-165 72.5t-181 23.5q-93 0 -179 -24t-166 -77.5t-139 -132.5t-94 -197t-35 -263q0 -149 35 -269t94 -198t139 -130.5t165.5 -75t179.5 -22.5q235 0 387 121.5t202 348.5z" />
    <glyph glyph-name="Eogonek" unicode="&#x118;" horiz-adv-x="1353" 
d="M1046 -94q0 -24 20.5 -36.5t49.5 -13.5t58 1.5t50 6.5l20 5v-113q-7 -1 -18 -3.5t-44 -5.5t-63 -3t-66.5 7.5t-62.5 22.5t-44 45.5t-18 73.5q0 61 32 107h-849v1658h1113v-161h-946v-527h796v-161l-796 3v-651h946v-161h-10q-21 -1 -43 -4t-53.5 -12t-51.5 -29t-20 -49z
" />
    <glyph glyph-name="Eogonek" unicode="&#x119;" horiz-adv-x="1353" 
d="M1046 -94q0 -24 20.5 -36.5t49.5 -13.5t58 1.5t50 6.5l20 5v-113q-7 -1 -18 -3.5t-44 -5.5t-63 -3t-66.5 7.5t-62.5 22.5t-44 45.5t-18 73.5q0 61 32 107h-849v1658h1113v-161h-946v-527h796v-161l-796 3v-651h946v-161h-10q-21 -1 -43 -4t-53.5 -12t-51.5 -29t-20 -49z
" />
    <glyph glyph-name="Lslash" unicode="&#x141;" horiz-adv-x="1353" 
d="M423 162h936v-162h-1104v752l-235 -103v183l235 103v723h168v-650l603 265v-183l-603 -265v-663z" />
    <glyph glyph-name="Lslash" unicode="&#x142;" horiz-adv-x="1353" 
d="M423 162h936v-162h-1104v752l-235 -103v183l235 103v723h168v-650l603 265v-183l-603 -265v-663z" />
    <glyph glyph-name="Nacute" unicode="&#x143;" horiz-adv-x="1689" 
d="M1410 1658h169v-1658h-235l-1065 1465v-1465h-168v1658h235l1064 -1464v1464zM1107 2132l-240 -334h-201l240 334h201z" />
    <glyph glyph-name="Nacute" unicode="&#x144;" horiz-adv-x="1689" 
d="M1410 1658h169v-1658h-235l-1065 1465v-1465h-168v1658h235l1064 -1464v1464zM1107 2132l-240 -334h-201l240 334h201z" />
    <glyph glyph-name="Sacute" unicode="&#x15a;" horiz-adv-x="1300" 
d="M260 1248q0 -78 34 -134t91 -87.5t131.5 -53t157 -38t164.5 -35t156.5 -51t131.5 -79.5t91 -126.5t34 -186.5q0 -68 -19 -134t-64.5 -131.5t-112.5 -114.5t-171.5 -79.5t-233.5 -30.5q-115 0 -214.5 31.5t-169.5 84t-119.5 121t-73.5 142.5t-24 148h168q0 -66 31 -130
t87 -115t142.5 -82.5t189.5 -31.5q110 0 193 28.5t130.5 77.5t70.5 108.5t23 127.5q0 75 -34 127.5t-91.5 82t-132 49.5t-156.5 35.5t-164 34t-156.5 51.5t-132 80.5t-91.5 128.5t-34 189q0 92 37 171.5t105.5 138.5t173.5 93t234 34q244 0 389.5 -135.5t145.5 -352.5h-168
q0 140 -99.5 230t-267.5 90q-173 0 -277.5 -72t-104.5 -204zM921 2132l-241 -333h-201l241 333h201z" />
    <glyph glyph-name="Sacute" unicode="&#x15b;" horiz-adv-x="1300" 
d="M260 1248q0 -78 34 -134t91 -87.5t131.5 -53t157 -38t164.5 -35t156.5 -51t131.5 -79.5t91 -126.5t34 -186.5q0 -68 -19 -134t-64.5 -131.5t-112.5 -114.5t-171.5 -79.5t-233.5 -30.5q-115 0 -214.5 31.5t-169.5 84t-119.5 121t-73.5 142.5t-24 148h168q0 -66 31 -130
t87 -115t142.5 -82.5t189.5 -31.5q110 0 193 28.5t130.5 77.5t70.5 108.5t23 127.5q0 75 -34 127.5t-91.5 82t-132 49.5t-156.5 35.5t-164 34t-156.5 51.5t-132 80.5t-91.5 128.5t-34 189q0 92 37 171.5t105.5 138.5t173.5 93t234 34q244 0 389.5 -135.5t145.5 -352.5h-168
q0 140 -99.5 230t-267.5 90q-173 0 -277.5 -72t-104.5 -204zM921 2132l-241 -333h-201l241 333h201z" />
    <glyph glyph-name="Zacute" unicode="&#x179;" horiz-adv-x="1406" 
d="M993 2132l-240 -334h-201l240 334h201zM1382 1658v-168l-1135 -1322h1135v-168h-1357v168l1134 1322h-1134v168h1357z" />
    <glyph glyph-name="Zacute" unicode="&#x17a;" horiz-adv-x="1406" 
d="M993 2132l-240 -334h-201l240 334h201zM1382 1658v-168l-1135 -1322h1135v-168h-1357v168l1134 1322h-1134v168h1357z" />
    <glyph glyph-name="Zdot" unicode="&#x17b;" horiz-adv-x="1409" 
d="M1382 1659v-168l-1135 -1323h1135v-168h-1357v168l1134 1322h-1134v169h1357zM798 1798h-189v189h189v-189z" />
    <glyph glyph-name="Zdot" unicode="&#x17c;" horiz-adv-x="1409" 
d="M1382 1659v-168l-1135 -1323h1135v-168h-1357v168l1134 1322h-1134v169h1357zM798 1798h-189v189h189v-189z" />
    <glyph glyph-name="Iocyrillic" unicode="&#x401;" horiz-adv-x="1247" 
d="M1224 1497h-946v-527h796v-161l-796 3v-651h946v-161h-1113v1658h1113v-161zM579 1798h-189v189h189v-189zM945 1798h-189v189h189v-189z" />
    <glyph glyph-name="Iocyrillic" unicode="&#x451;" horiz-adv-x="1247" 
d="M1224 1497h-946v-527h796v-161l-796 3v-651h946v-161h-1113v1658h1113v-161zM579 1798h-189v189h189v-189zM945 1798h-189v189h189v-189z" />
    <glyph glyph-name="Ecyrillic" unicode="&#x404;" 
d="M1423 605h172q-24 -135 -80 -244.5t-129.5 -181.5t-166 -121t-188 -70t-197.5 -21q-235 0 -412 106t-273 301.5t-96 455.5q0 408 231 644q103 106 245.5 162t304.5 56q291 0 488.5 -158t262.5 -439h-173q-32 114 -92.5 199t-139.5 134t-165 72.5t-181 23.5
q-83 0 -161 -19.5t-152 -62.5t-132 -106t-100 -157t-58 -208h715v-162h-724q2 -144 38.5 -260.5t95 -192t138 -126.5t164 -73t176.5 -22q235 0 387 121.5t202 348.5z" />
    <glyph glyph-name="Ecyrillic" unicode="&#x454;" 
d="M1423 605h172q-24 -135 -80 -244.5t-129.5 -181.5t-166 -121t-188 -70t-197.5 -21q-235 0 -412 106t-273 301.5t-96 455.5q0 408 231 644q103 106 245.5 162t304.5 56q291 0 488.5 -158t262.5 -439h-173q-32 114 -92.5 199t-139.5 134t-165 72.5t-181 23.5
q-83 0 -161 -19.5t-152 -62.5t-132 -106t-100 -157t-58 -208h715v-162h-724q2 -144 38.5 -260.5t95 -192t138 -126.5t164 -73t176.5 -22q235 0 387 121.5t202 348.5z" />
    <glyph glyph-name="Icyrillic" unicode="&#x406;" horiz-adv-x="389" 
d="M278 0h-167v1658h167v-1658z" />
    <glyph glyph-name="Icyrillic" unicode="&#x456;" horiz-adv-x="389" 
d="M278 0h-167v1658h167v-1658z" />
    <glyph glyph-name="Yicyrillic" unicode="&#x407;" horiz-adv-x="569" 
d="M436 0h-167v1659h167v-1659zM246 1798h-189v189h189v-189zM648 1798h-189v189h189v-189z" />
    <glyph glyph-name="Yicyrillic" unicode="&#x457;" horiz-adv-x="569" 
d="M436 0h-167v1659h167v-1659zM246 1798h-189v189h189v-189zM648 1798h-189v189h189v-189z" />
    <glyph glyph-name="Acyrillic" unicode="&#x410;" horiz-adv-x="1427" 
d="M1078 477h-732l-169 -477h-177l620 1659h188l620 -1659h-180zM714 1503l-309 -865h616z" />
    <glyph glyph-name="Acyrillic" unicode="&#x430;" horiz-adv-x="1427" 
d="M1078 477h-732l-169 -477h-177l620 1659h188l620 -1659h-180zM714 1503l-309 -865h616z" />
    <glyph glyph-name="Becyrillic" unicode="&#x411;" horiz-adv-x="1347" 
d="M797 930q101 0 186.5 -26.5t145 -71.5t101.5 -104t61.5 -123.5t19.5 -130.5q0 -251 -130.5 -362.5t-420.5 -111.5h-649v1658h1038v-163h-871v-565h519zM791 162q166 0 259.5 69.5t93.5 218.5q0 131 -97.5 224t-260.5 93h-508v-605h513z" />
    <glyph glyph-name="Becyrillic" unicode="&#x431;" horiz-adv-x="1347" 
d="M797 930q101 0 186.5 -26.5t145 -71.5t101.5 -104t61.5 -123.5t19.5 -130.5q0 -251 -130.5 -362.5t-420.5 -111.5h-649v1658h1038v-163h-871v-565h519zM791 162q166 0 259.5 69.5t93.5 218.5q0 131 -97.5 224t-260.5 93h-508v-605h513z" />
    <glyph glyph-name="Vecyrillic" unicode="&#x412;" horiz-adv-x="1421" 
d="M999 857q88 -13 151 -54t97 -101.5t49 -125.5t15 -139q0 -205 -136.5 -321t-414.5 -116h-649v1658h627q105 0 195 -39t150 -103.5t93.5 -149t33.5 -174.5q0 -44 -11 -91t-34 -95.5t-66 -88.5t-100 -60zM689 1494h-411v-564h410q179 0 265.5 63t86.5 216q0 130 -90 207.5
t-261 77.5zM791 162q166 0 259.5 69.5t93.5 218.5q0 131 -97.5 224t-260.5 93h-508v-605h513z" />
    <glyph glyph-name="Vecyrillic" unicode="&#x432;" horiz-adv-x="1421" 
d="M999 857q88 -13 151 -54t97 -101.5t49 -125.5t15 -139q0 -205 -136.5 -321t-414.5 -116h-649v1658h627q105 0 195 -39t150 -103.5t93.5 -149t33.5 -174.5q0 -44 -11 -91t-34 -95.5t-66 -88.5t-100 -60zM689 1494h-411v-564h410q179 0 265.5 63t86.5 216q0 130 -90 207.5
t-261 77.5zM791 162q166 0 259.5 69.5t93.5 218.5q0 131 -97.5 224t-260.5 93h-508v-605h513z" />
    <glyph glyph-name="Gecyrillic" unicode="&#x413;" horiz-adv-x="1175" 
d="M1182 1658v-162h-863v-1496h-167v1658h1030z" />
    <glyph glyph-name="Gecyrillic" unicode="&#x433;" horiz-adv-x="1175" 
d="M1182 1658v-162h-863v-1496h-167v1658h1030z" />
    <glyph glyph-name="Decyrillic" unicode="&#x414;" horiz-adv-x="1781" 
d="M1458 1658v-1501h332v-491h-161v334h-1476v-334h-161v490l185 1h69q45 43 81.5 133.5t60.5 192.5t42.5 246t28 255.5t16 263t8.5 226t4 184.5h971zM467 157h830v1345h-649q0 -37 -1 -100t-10 -242t-26 -339.5t-54.5 -349.5t-89.5 -314z" />
    <glyph glyph-name="Decyrillic" unicode="&#x434;" horiz-adv-x="1781" 
d="M1458 1658v-1501h332v-491h-161v334h-1476v-334h-161v490l185 1h69q45 43 81.5 133.5t60.5 192.5t42.5 246t28 255.5t16 263t8.5 226t4 184.5h971zM467 157h830v1345h-649q0 -37 -1 -100t-10 -242t-26 -339.5t-54.5 -349.5t-89.5 -314z" />
    <glyph glyph-name="Iecyrillic" unicode="&#x415;" horiz-adv-x="1247" 
d="M278 1497v-527h796v-161l-796 3v-651h946v-161h-1113v1658h1113v-161h-946z" />
    <glyph glyph-name="Iecyrillic" unicode="&#x435;" horiz-adv-x="1247" 
d="M278 1497v-527h796v-161l-796 3v-651h946v-161h-1113v1658h1113v-161h-946z" />
    <glyph glyph-name="Zhecyrillic" unicode="&#x416;" horiz-adv-x="1851" 
d="M1373 862l463 -862h-183l-438 791h-210v-791h-161v791h-211l-438 -791h-183l464 862l-451 796h186l422 -725h211v725h161v-725h210l422 725h187z" />
    <glyph glyph-name="Zhecyrillic" unicode="&#x436;" horiz-adv-x="1851" 
d="M1373 862l463 -862h-183l-438 791h-210v-791h-161v791h-211l-438 -791h-183l464 862l-451 796h186l422 -725h211v725h161v-725h210l422 725h187z" />
    <glyph glyph-name="Zecyrillic" unicode="&#x417;" horiz-adv-x="1312" 
d="M1244 455q0 -488 -587 -488q-99 0 -182.5 13.5t-143.5 35.5t-108 55.5t-78.5 66t-53 76t-34 78t-18 78t-7.5 69t-1 58.5h157q0 -25 2 -48t12 -62t27 -71.5t51 -68.5t79 -61t116 -41.5t159 -16.5q134 0 229 30t143.5 83.5t66.5 117t10 139.5q-13 113 -140 189t-339 76v154
q85 0 153.5 14t113 35t77.5 51.5t50 59t27 63t12.5 57t2.5 46.5q0 93 -56 160.5t-136 97t-169 29.5q-99 0 -176.5 -26t-126.5 -72t-77 -102t-38 -123h-167q7 97 45.5 182t105.5 153.5t172.5 108.5t235.5 40q279 0 415 -129.5t136 -358.5q0 -80 -26 -146t-63 -104
t-74.5 -64.5t-63.5 -36.5l-26 -9q6 -1 16.5 -3t41 -13.5t58 -27t61.5 -46.5t58.5 -69.5t41 -98t16.5 -130.5z" />
    <glyph glyph-name="Zecyrillic" unicode="&#x437;" horiz-adv-x="1312" 
d="M1244 455q0 -488 -587 -488q-99 0 -182.5 13.5t-143.5 35.5t-108 55.5t-78.5 66t-53 76t-34 78t-18 78t-7.5 69t-1 58.5h157q0 -25 2 -48t12 -62t27 -71.5t51 -68.5t79 -61t116 -41.5t159 -16.5q134 0 229 30t143.5 83.5t66.5 117t10 139.5q-13 113 -140 189t-339 76v154
q85 0 153.5 14t113 35t77.5 51.5t50 59t27 63t12.5 57t2.5 46.5q0 93 -56 160.5t-136 97t-169 29.5q-99 0 -176.5 -26t-126.5 -72t-77 -102t-38 -123h-167q7 97 45.5 182t105.5 153.5t172.5 108.5t235.5 40q279 0 415 -129.5t136 -358.5q0 -80 -26 -146t-63 -104
t-74.5 -64.5t-63.5 -36.5l-26 -9q6 -1 16.5 -3t41 -13.5t58 -27t61.5 -46.5t58.5 -69.5t41 -98t16.5 -130.5z" />
    <glyph glyph-name="Iicyrillic" unicode="&#x418;" horiz-adv-x="1617" 
d="M1338 1465l-1029 -1465h-198v1658h168v-1464l1028 1464h199v-1658h-168v1465z" />
    <glyph glyph-name="Iicyrillic" unicode="&#x438;" horiz-adv-x="1617" 
d="M1338 1465l-1029 -1465h-198v1658h168v-1464l1028 1464h199v-1658h-168v1465z" />
    <glyph glyph-name="Iishortcyrillic" unicode="&#x419;" horiz-adv-x="1617" 
d="M1307 1658h199v-1658h-168v1465l-1029 -1465h-198v1658h168v-1464zM809 1691q-152 0 -261 100.5t-109 261.5l134 1q0 -41 14.5 -81t42.5 -74.5t74.5 -56t104.5 -21.5t104.5 21.5t74 56t41.5 74.5t14 81l135 -1q0 -161 -108.5 -261.5t-260.5 -100.5z" />
    <glyph glyph-name="Iishortcyrillic" unicode="&#x439;" horiz-adv-x="1617" 
d="M1307 1658h199v-1658h-168v1465l-1029 -1465h-198v1658h168v-1464zM809 1691q-152 0 -261 100.5t-109 261.5l134 1q0 -41 14.5 -81t42.5 -74.5t74.5 -56t104.5 -21.5t104.5 21.5t74 56t41.5 74.5t14 81l135 -1q0 -161 -108.5 -261.5t-260.5 -100.5z" />
    <glyph glyph-name="Kacyrillic" unicode="&#x41a;" horiz-adv-x="1419" 
d="M278 741l840 918h227l-613 -670l689 -989h-204l-600 863l-339 -370v-493h-167v1659h167v-918z" />
    <glyph glyph-name="Kacyrillic" unicode="&#x43a;" horiz-adv-x="1419" 
d="M278 741l840 918h227l-613 -670l689 -989h-204l-600 863l-339 -370v-493h-167v1659h167v-918z" />
    <glyph glyph-name="Elcyrillic" unicode="&#x41b;" horiz-adv-x="1462" 
d="M1186 0v1496h-655l-3 -94q0 -1 -1 -37.5t-3 -97.5t-5.5 -139t-9 -169t-13 -179t-18 -176t-23.5 -155q-13 -70 -24 -122t-26.5 -97t-25.5 -76t-32 -57t-34.5 -41t-44.5 -27t-50 -17t-64 -8t-74 -3.5t-90 -0.5v161q64 0 99 2.5t71 17t54 36.5t38 69t33 107t29 158
q44 260 69 1107h964v-1658h-161z" />
    <glyph glyph-name="Elcyrillic" unicode="&#x43b;" horiz-adv-x="1462" 
d="M1186 0v1496h-655l-3 -94q0 -1 -1 -37.5t-3 -97.5t-5.5 -139t-9 -169t-13 -179t-18 -176t-23.5 -155q-13 -70 -24 -122t-26.5 -97t-25.5 -76t-32 -57t-34.5 -41t-44.5 -27t-50 -17t-64 -8t-74 -3.5t-90 -0.5v161q64 0 99 2.5t71 17t54 36.5t38 69t33 107t29 158
q44 260 69 1107h964v-1658h-161z" />
    <glyph glyph-name="Emcyrillic" unicode="&#x41c;" horiz-adv-x="1859" 
d="M854 0l-574 1465v-1465h-169v1658h269l550 -1420l547 1420h271v-1658h-169v1465l-573 -1465h-152z" />
    <glyph glyph-name="Emcyrillic" unicode="&#x43c;" horiz-adv-x="1859" 
d="M854 0l-574 1465v-1465h-169v1658h269l550 -1420l547 1420h271v-1658h-169v1465l-573 -1465h-152z" />
    <glyph glyph-name="Encyrillic" unicode="&#x41d;" horiz-adv-x="1501" 
d="M1222 0v809h-943v-809h-168v1659h168v-688h943v688h168v-1659h-168z" />
    <glyph glyph-name="Encyrillic" unicode="&#x43d;" horiz-adv-x="1501" 
d="M1222 0v809h-943v-809h-168v1659h168v-688h943v688h168v-1659h-168z" />
    <glyph glyph-name="Ocyrillic" unicode="&#x41e;" horiz-adv-x="1671" 
d="M834 1692q236 0 412 -104t272 -299.5t96 -458.5q0 -184 -45.5 -333t-120.5 -246t-177 -162.5t-210.5 -93.5t-226.5 -28q-235 0 -412 106t-273 301.5t-96 455.5q0 408 231 644q103 106 245.5 162t304.5 56zM834 135q289 0 450.5 182t161.5 513q0 150 -35 270t-93.5 198
t-138.5 130t-165.5 74t-179.5 22q-93 0 -179 -24t-166 -77.5t-139 -132.5t-94 -197t-35 -263q0 -149 35 -269t94 -198t139 -130.5t165.5 -75t179.5 -22.5z" />
    <glyph glyph-name="Ocyrillic" unicode="&#x43e;" horiz-adv-x="1671" 
d="M834 1692q236 0 412 -104t272 -299.5t96 -458.5q0 -184 -45.5 -333t-120.5 -246t-177 -162.5t-210.5 -93.5t-226.5 -28q-235 0 -412 106t-273 301.5t-96 455.5q0 408 231 644q103 106 245.5 162t304.5 56zM834 135q289 0 450.5 182t161.5 513q0 150 -35 270t-93.5 198
t-138.5 130t-165.5 74t-179.5 22q-93 0 -179 -24t-166 -77.5t-139 -132.5t-94 -197t-35 -263q0 -149 35 -269t94 -198t139 -130.5t165.5 -75t179.5 -22.5z" />
    <glyph glyph-name="Pecyrillic" unicode="&#x41f;" horiz-adv-x="1501" 
d="M1222 0v1497h-943v-1497h-168v1659h1279v-1659h-168z" />
    <glyph glyph-name="Pecyrillic" unicode="&#x43f;" horiz-adv-x="1501" 
d="M1222 0v1497h-943v-1497h-168v1659h1279v-1659h-168z" />
    <glyph glyph-name="Ercyrillic" unicode="&#x420;" horiz-adv-x="1351" 
d="M784 1658q127 0 232.5 -43t172 -113t102.5 -156.5t36 -176.5q0 -91 -35.5 -176t-101.5 -153.5t-171.5 -110t-234.5 -41.5h-502v-688h-171v1658h673zM817 857q85 0 161 33t129 106t53 173q0 76 -31 138.5t-81 101.5t-110 60t-121 21h-535v-633h535z" />
    <glyph glyph-name="Ercyrillic" unicode="&#x440;" horiz-adv-x="1351" 
d="M784 1658q127 0 232.5 -43t172 -113t102.5 -156.5t36 -176.5q0 -91 -35.5 -176t-101.5 -153.5t-171.5 -110t-234.5 -41.5h-502v-688h-171v1658h673zM817 857q85 0 161 33t129 106t53 173q0 76 -31 138.5t-81 101.5t-110 60t-121 21h-535v-633h535z" />
    <glyph glyph-name="Escyrillic" unicode="&#x421;" 
d="M1423 605h172q-24 -135 -80 -244.5t-129.5 -181.5t-166 -121t-188 -70t-197.5 -21q-235 0 -412 106t-273 301.5t-96 455.5q0 408 231 644q103 106 245.5 162t304.5 56q291 0 488.5 -158t262.5 -439h-173q-32 114 -92.5 199t-139.5 134t-165 72.5t-181 23.5
q-93 0 -179 -24t-166 -77.5t-139 -132.5t-94 -197t-35 -263q0 -149 35 -269t94 -198t139 -130.5t165.5 -75t179.5 -22.5q235 0 387 121.5t202 348.5z" />
    <glyph glyph-name="Escyrillic" unicode="&#x441;" 
d="M1423 605h172q-24 -135 -80 -244.5t-129.5 -181.5t-166 -121t-188 -70t-197.5 -21q-235 0 -412 106t-273 301.5t-96 455.5q0 408 231 644q103 106 245.5 162t304.5 56q291 0 488.5 -158t262.5 -439h-173q-32 114 -92.5 199t-139.5 134t-165 72.5t-181 23.5
q-93 0 -179 -24t-166 -77.5t-139 -132.5t-94 -197t-35 -263q0 -149 35 -269t94 -198t139 -130.5t165.5 -75t179.5 -22.5q235 0 387 121.5t202 348.5z" />
    <glyph glyph-name="Tecyrillic" unicode="&#x422;" horiz-adv-x="1542" 
d="M1547 1497h-693v-1497h-168v1497h-694v162h1555v-162z" />
    <glyph glyph-name="Tecyrillic" unicode="&#x442;" horiz-adv-x="1542" 
d="M1547 1497h-693v-1497h-168v1497h-694v162h1555v-162z" />
    <glyph glyph-name="Ucyrillic" unicode="&#x423;" horiz-adv-x="1251" 
d="M1081 1663l177 -5l-805 -1658l-176 5l263 527l-546 1126h179l452 -938z" />
    <glyph glyph-name="Ucyrillic" unicode="&#x443;" horiz-adv-x="1251" 
d="M1081 1663l177 -5l-805 -1658l-176 5l263 527l-546 1126h179l452 -938z" />
    <glyph glyph-name="Efcyrillic" unicode="&#x424;" horiz-adv-x="1763" 
d="M966 1462q10 -1 27 -2.5t69 -10t102.5 -21t119.5 -37.5t128 -57t119.5 -81.5t103 -109t69 -142t26.5 -177.5q0 -96 -26 -179.5t-70.5 -142.5t-101.5 -107.5t-120.5 -79t-127 -54t-120.5 -35t-101.5 -18.5t-70.5 -8l-26 -2v-198h-168v212q-10 0 -27 1t-69 7t-103 16.5
t-119.5 32.5t-128 51.5t-120 77t-102.5 106t-69 141t-27 179.5q0 96 26 179t70.5 142.5t102 109.5t121 81.5t126.5 56t120.5 37t102 20.5t70.5 10l26 2v196h168v-196zM798 361v953q-8 0 -21.5 -1t-55.5 -6t-83 -13.5t-96.5 -26t-103 -41.5t-96.5 -62t-83 -84.5t-55.5 -112.5
t-21.5 -143q0 -94 34 -170.5t88.5 -123.5t120 -81.5t131 -50.5t120 -25.5t88.5 -10.5zM966 360q13 0 35 1t86 10.5t122 25.5t128.5 51t121.5 82t86 123.5t35 170.5q0 74 -21 137.5t-56.5 109.5t-81.5 84t-97 62t-102 43t-97 28.5t-81.5 15.5t-56.5 8l-21 1v-953z" />
    <glyph glyph-name="Efcyrillic" unicode="&#x444;" horiz-adv-x="1763" 
d="M966 1462q10 -1 27 -2.5t69 -10t102.5 -21t119.5 -37.5t128 -57t119.5 -81.5t103 -109t69 -142t26.5 -177.5q0 -96 -26 -179.5t-70.5 -142.5t-101.5 -107.5t-120.5 -79t-127 -54t-120.5 -35t-101.5 -18.5t-70.5 -8l-26 -2v-198h-168v212q-10 0 -27 1t-69 7t-103 16.5
t-119.5 32.5t-128 51.5t-120 77t-102.5 106t-69 141t-27 179.5q0 96 26 179t70.5 142.5t102 109.5t121 81.5t126.5 56t120.5 37t102 20.5t70.5 10l26 2v196h168v-196zM798 361v953q-8 0 -21.5 -1t-55.5 -6t-83 -13.5t-96.5 -26t-103 -41.5t-96.5 -62t-83 -84.5t-55.5 -112.5
t-21.5 -143q0 -94 34 -170.5t88.5 -123.5t120 -81.5t131 -50.5t120 -25.5t88.5 -10.5zM966 360q13 0 35 1t86 10.5t122 25.5t128.5 51t121.5 82t86 123.5t35 170.5q0 74 -21 137.5t-56.5 109.5t-81.5 84t-97 62t-102 43t-97 28.5t-81.5 15.5t-56.5 8l-21 1v-953z" />
    <glyph glyph-name="Khacyrillic" unicode="&#x425;" horiz-adv-x="1429" 
d="M843 819l568 -819h-204l-466 672l-466 -672h-204l568 819l-582 840h204l480 -693l480 693h204z" />
    <glyph glyph-name="Khacyrillic" unicode="&#x445;" horiz-adv-x="1429" 
d="M843 819l568 -819h-204l-466 672l-466 -672h-204l568 819l-582 840h204l480 -693l480 693h204z" />
    <glyph glyph-name="Tsecyrillic" unicode="&#x426;" horiz-adv-x="1708" 
d="M1427 161h277v-493h-168v332h-1425v1657h168v-1496h979v1496h169v-1496z" />
    <glyph glyph-name="Tsecyrillic" unicode="&#x446;" horiz-adv-x="1708" 
d="M1427 161h277v-493h-168v332h-1425v1657h168v-1496h979v1496h169v-1496z" />
    <glyph glyph-name="Checyrillic" unicode="&#x427;" horiz-adv-x="1314" 
d="M619 764q-122 0 -226.5 25.5t-185 76t-126.5 132t-46 186.5v474h168v-392q0 -169 110 -252t306 -83q201 0 308 83t107 253v391h169v-1658h-169v899q-4 -5 -11.5 -14.5t-40.5 -32.5t-75 -41t-119 -32.5t-169 -14.5z" />
    <glyph glyph-name="Checyrillic" unicode="&#x447;" horiz-adv-x="1314" 
d="M619 764q-122 0 -226.5 25.5t-185 76t-126.5 132t-46 186.5v474h168v-392q0 -169 110 -252t306 -83q201 0 308 83t107 253v391h169v-1658h-169v899q-4 -5 -11.5 -14.5t-40.5 -32.5t-75 -41t-119 -32.5t-169 -14.5z" />
    <glyph glyph-name="Shacyrillic" unicode="&#x428;" horiz-adv-x="2134" 
d="M1854 1658h168v-1658h-1911v1658h168v-1496h703v1496h169v-1496h703v1496z" />
    <glyph glyph-name="Shacyrillic" unicode="&#x448;" horiz-adv-x="2134" 
d="M1854 1658h168v-1658h-1911v1658h168v-1496h703v1496h169v-1496h703v1496z" />
    <glyph glyph-name="Shchacyrillic" unicode="&#x429;" horiz-adv-x="2301" 
d="M2022 161h276v-493h-168v332h-2019v1657h168v-1496h703v1496h169v-1496h703v1496h168v-1496z" />
    <glyph glyph-name="Shchacyrillic" unicode="&#x449;" horiz-adv-x="2301" 
d="M2022 161h276v-493h-168v332h-2019v1657h168v-1496h703v1496h169v-1496h703v1496h168v-1496z" />
    <glyph glyph-name="Hardsigncyrillic" unicode="&#x42a;" horiz-adv-x="1546" 
d="M1005 930q101 0 186.5 -26.5t145 -71.5t101.5 -104t61.5 -123.5t19.5 -130.5q0 -252 -130.5 -363t-419.5 -111h-650v1490h-325v168h493v-728h518zM1000 162q166 0 259.5 69.5t93.5 218.5q0 131 -97.5 224t-260.5 93h-508v-605h513z" />
    <glyph glyph-name="Hardsigncyrillic" unicode="&#x44a;" horiz-adv-x="1546" 
d="M1005 930q101 0 186.5 -26.5t145 -71.5t101.5 -104t61.5 -123.5t19.5 -130.5q0 -252 -130.5 -363t-419.5 -111h-650v1490h-325v168h493v-728h518zM1000 162q166 0 259.5 69.5t93.5 218.5q0 131 -97.5 224t-260.5 93h-508v-605h513z" />
    <glyph glyph-name="Yericyrillic" unicode="&#x42b;" horiz-adv-x="1781" 
d="M797 930q101 0 186.5 -26.5t145 -71.5t101.5 -104t61.5 -123.5t19.5 -130.5q0 -251 -130.5 -362.5t-420.5 -111.5h-649v1658h167v-728h519zM791 162q166 0 259.5 69.5t93.5 218.5q0 131 -97.5 224t-260.5 93h-508v-605h513zM1671 1h-168v1657h168v-1657z" />
    <glyph glyph-name="Yericyrillic" unicode="&#x44b;" horiz-adv-x="1781" 
d="M797 930q101 0 186.5 -26.5t145 -71.5t101.5 -104t61.5 -123.5t19.5 -130.5q0 -251 -130.5 -362.5t-420.5 -111.5h-649v1658h167v-728h519zM791 162q166 0 259.5 69.5t93.5 218.5q0 131 -97.5 224t-260.5 93h-508v-605h513zM1671 1h-168v1657h168v-1657z" />
    <glyph glyph-name="Softsigncyrillic" unicode="&#x42c;" horiz-adv-x="1337" 
d="M797 930q101 0 186.5 -26.5t145 -71.5t101.5 -104t61.5 -123.5t19.5 -130.5q0 -251 -130.5 -362.5t-420.5 -111.5h-649v1658h167v-728h519zM791 162q166 0 259.5 69.5t93.5 218.5q0 131 -97.5 224t-260.5 93h-508v-605h513z" />
    <glyph glyph-name="Softsigncyrillic" unicode="&#x44c;" horiz-adv-x="1337" 
d="M797 930q101 0 186.5 -26.5t145 -71.5t101.5 -104t61.5 -123.5t19.5 -130.5q0 -251 -130.5 -362.5t-420.5 -111.5h-649v1658h167v-728h519zM791 162q166 0 259.5 69.5t93.5 218.5q0 131 -97.5 224t-260.5 93h-508v-605h513z" />
    <glyph glyph-name="Ereversedcyrillic" unicode="&#x42d;" 
d="M1351 1474q232 -237 232 -644q0 -260 -96 -455.5t-273 -301.5t-412 -106q-102 0 -197.5 21t-188 70t-166 121t-129.5 181.5t-80 244.5h172q50 -227 202 -348.5t387 -121.5q92 0 176.5 22t164 73t138 126.5t95 192t38.5 260.5h-725v162h715q-16 114 -57.5 208t-99.5 157
t-132 106t-152 62.5t-161 19.5q-95 0 -181 -23.5t-165 -72.5t-139.5 -134t-92.5 -199h-173q65 281 262.5 439t488.5 158q162 0 304 -56t245 -162z" />
    <glyph glyph-name="Ereversedcyrillic" unicode="&#x44d;" 
d="M1351 1474q232 -237 232 -644q0 -260 -96 -455.5t-273 -301.5t-412 -106q-102 0 -197.5 21t-188 70t-166 121t-129.5 181.5t-80 244.5h172q50 -227 202 -348.5t387 -121.5q92 0 176.5 22t164 73t138 126.5t95 192t38.5 260.5h-725v162h715q-16 114 -57.5 208t-99.5 157
t-132 106t-152 62.5t-161 19.5q-95 0 -181 -23.5t-165 -72.5t-139.5 -134t-92.5 -199h-173q65 281 262.5 439t488.5 158q162 0 304 -56t245 -162z" />
    <glyph glyph-name="IUcyrillic" unicode="&#x42e;" horiz-adv-x="2215" 
d="M1380 1692q236 0 412 -104t272 -299.5t96 -458.5q0 -184 -45.5 -333t-120.5 -246t-177 -162.5t-210.5 -93.5t-226.5 -28q-341 0 -551 217.5t-227 585.5h-324v-769h-167v1658h167v-733h325q26 343 228 548q103 106 245 162t304 56zM1380 135q289 0 450.5 182t161.5 513
q0 150 -35 270t-93.5 198t-138.5 130t-165.5 74t-179.5 22q-93 0 -179 -24t-165.5 -77.5t-138.5 -132.5t-94 -197t-35 -263q0 -149 35 -269t93.5 -198t138.5 -130.5t165.5 -75t179.5 -22.5z" />
    <glyph glyph-name="IUcyrillic" unicode="&#x44e;" horiz-adv-x="2215" 
d="M1380 1692q236 0 412 -104t272 -299.5t96 -458.5q0 -184 -45.5 -333t-120.5 -246t-177 -162.5t-210.5 -93.5t-226.5 -28q-341 0 -551 217.5t-227 585.5h-324v-769h-167v1658h167v-733h325q26 343 228 548q103 106 245 162t304 56zM1380 135q289 0 450.5 182t161.5 513
q0 150 -35 270t-93.5 198t-138.5 130t-165.5 74t-179.5 22q-93 0 -179 -24t-165.5 -77.5t-138.5 -132.5t-94 -197t-35 -263q0 -149 35 -269t93.5 -198t138.5 -130.5t165.5 -75t179.5 -22.5z" />
    <glyph glyph-name="IAcyrillic" unicode="&#x42f;" horiz-adv-x="1411" 
d="M234 0h-197l403 724h194zM615 1658l684 -1v-1657h-171v724h-126h-562q-43 7 -86 22.5t-96 51t-92.5 84.5t-66.5 129.5t-27 179.5q0 100 36.5 182t94 133.5t131 87t144 50t137.5 14.5zM1128 893v594h-546q-138 0 -240 -83.5t-102 -212.5q0 -155 84.5 -226.5t257.5 -71.5
h546z" />
    <glyph glyph-name="IAcyrillic" unicode="&#x44f;" horiz-adv-x="1411" 
d="M234 0h-197l403 724h194zM615 1658l684 -1v-1657h-171v724h-126h-562q-43 7 -86 22.5t-96 51t-92.5 84.5t-66.5 129.5t-27 179.5q0 100 36.5 182t94 133.5t131 87t144 50t137.5 14.5zM1128 893v594h-546q-138 0 -240 -83.5t-102 -212.5q0 -155 84.5 -226.5t257.5 -71.5
h546z" />
    <glyph glyph-name="Gheupturncyrillic" unicode="&#x490;" horiz-adv-x="1134" 
d="M1141 1658v-162h-863v-1496h-167v1658h869v292h161v-292z" />
    <glyph glyph-name="Gheupturncyrillic" unicode="&#x491;" horiz-adv-x="1134" 
d="M1141 1658v-162h-863v-1496h-167v1658h869v292h161v-292z" />
    <glyph glyph-name="endash" unicode="&#x2013;" horiz-adv-x="1138" 
d="M1093 825h-1048v162h1048v-162z" />
    <glyph glyph-name="emdash" unicode="&#x2014;" horiz-adv-x="1638" 
d="M1593 825h-1548v162h1548v-162z" />
    <glyph glyph-name="quotedblleft" unicode="&#x201c;" horiz-adv-x="622" 
d="M49 1489q1 107 78 163.5t175 33.5v-71q-71 18 -122.5 -20t-56.5 -106h146v-225h-220v225zM605 1615q-71 18 -122 -20t-56 -106h145v-225h-220v225q1 107 78 163.5t175 33.5v-71z" />
    <glyph glyph-name="quotedblright" unicode="&#x201d;" horiz-adv-x="671" 
d="M392 1659h219v-225q-1 -107 -78 -163.5t-175 -33.5v71q71 -18 122.5 20t56.5 106h-145v225zM89 1434v225h219v-225q-1 -107 -78 -163.5t-175 -33.5v71q71 -18 122.5 20t56.5 106h-145z" />
    <glyph glyph-name="quotedblbase" unicode="&#x201e;" horiz-adv-x="624" 
d="M353 226h220v-225q-1 -107 -78.5 -164t-175.5 -34v71q71 -18 122.5 20t56.5 106h-145v226zM50 0v226h219v-226q-1 -107 -78 -163.5t-175 -33.5v71q71 -18 122.5 20t56.5 106h-145z" />
    <glyph glyph-name="bullet" unicode="&#x2022;" horiz-adv-x="638" 
d="M320 1076q94 0 151.5 -62t57.5 -163q0 -109 -61.5 -166.5t-147.5 -57.5t-147.5 57.5t-61.5 166.5q0 99 58.5 162t150.5 63z" />
    <glyph glyph-name="Euro" unicode="&#x20ac;" horiz-adv-x="1882" 
d="M1644 605h171q-24 -135 -80 -244.5t-129.5 -181.5t-166 -121t-188 -70t-197.5 -21q-307 0 -509.5 178t-254.5 486h-245v153h231q-2 30 -2 46q0 15 2 45h-231v153h245q46 274 215 446q103 106 245 162t304 56q291 0 489 -158t263 -439h-173q-32 114 -93 199t-140 134
t-165 72.5t-181 23.5q-79 0 -153 -17.5t-145 -56.5t-128.5 -95.5t-101 -140.5t-64.5 -186h632v-153h-650q-2 -30 -2 -45q0 -16 2 -46h650v-153h-633q25 -131 85 -229.5t142 -155t173.5 -84t192.5 -27.5q235 0 387.5 121.5t202.5 348.5z" />
    <glyph glyph-name="uni20bd" unicode="&#x20bd;" horiz-adv-x="1478" 
d="M889 688h-503v-166h600v-154h-600v-368h-171v368h-158v154h158v1136h673q127 0 232.5 -43t172 -113t102.5 -156.5t36 -176.5q0 -91 -35.5 -176t-101.5 -153.5t-171 -110t-234 -41.5zM386 1490v-633h535q62 0 122 20t110 57t80.5 98t30.5 137t-31 138.5t-81 101.5t-110 60
t-121 21h-535z" />
    <glyph glyph-name="arrowleft" unicode="&#x2190;" horiz-adv-x="2326" 
d="M111 763v166q13 1 35 3t86.5 16t123 35.5t130 66t123 102.5t86.5 150t35 204h161q1 -6 2 -16t0.5 -44.5t-5.5 -70.5t-21.5 -90t-42.5 -107.5t-72 -120t-107 -128.5h1570v-166h-1570q83 -86 139 -177t76.5 -159.5t29 -125t4.5 -85.5l-3 -30h-161q0 88 -21 164t-57 130
t-82.5 99t-97.5 73.5t-102.5 50t-98 32.5t-82.5 18t-57 9z" />
    <glyph glyph-name="arrowup" unicode="&#x2191;" horiz-adv-x="1540" 
d="M688 2104h165q1 -13 3 -35t16 -86.5t35.5 -123t66 -130t102.5 -123t150 -86.5t204 -35v-161q-11 -2 -31 -3.5t-83.5 5.5t-128 28t-157 77t-177.5 139v-1570h-165v1570q-86 -83 -177 -139t-159.5 -76.5t-125 -29t-86.5 -5.5l-29 4v161q88 0 164 21t130 57t99 82.5
t73.5 97.5t50 102.5t32.5 98t18 82.5t8 57z" />
    <glyph glyph-name="arrowright" unicode="&#x2192;" horiz-adv-x="2326" 
d="M2215 929v-166q-13 -1 -35 -3t-86.5 -16t-123 -35.5t-130 -66t-123 -102.5t-86.5 -150t-35 -204h-162q-2 11 -3.5 31t6 83.5t28.5 128t77 157t139 177.5h-1570v166h1570q-83 86 -139 177t-76.5 159.5t-29.5 125t-6 85.5l4 30h162q0 -88 21 -164t57 -130t82.5 -99
t97.5 -73.5t102.5 -50t98 -32.5t82.5 -18t57 -9z" />
    <glyph glyph-name="arrowdown" unicode="&#x2193;" horiz-adv-x="1540" 
d="M853 0h-165q-1 13 -3 35t-16 86.5t-35.5 123t-66 130t-102.5 123t-150 86.5t-204 35v162q11 2 31 3.5t83.5 -6t128 -28.5t156.5 -77t178 -139v1570h165v-1570q86 83 177 139t159.5 76.5t125 29.5t85.5 5l30 -3v-162q-88 0 -164 -21t-130 -57t-99 -82.5t-73.5 -97.5
t-50 -102.5t-32.5 -98t-18 -82.5t-9 -57z" />
    <glyph glyph-name="quotedbl.alt1" unicode="&#xf005;" horiz-adv-x="778" 
d="M111 1489q1 107 78 163.5t175 33.5v-71q-71 18 -122.5 -20t-56.5 -106h145v-225h-219v225zM667 1615q-71 18 -122.5 -20t-56.5 -106h145v-225h-219v225q1 107 78 163.5t175 33.5v-71z" />
    <glyph glyph-name="Eogonek.alt1" unicode="&#xf008;" 
d="M1023 -13q-81 -24 -81 -81q0 -24 20.5 -36.5t49.5 -13.5t58 1.5t50 6.5l20 5v-113q-7 -1 -18 -3.5t-44 -5.5t-63 -3t-66.5 7.5t-62.5 22.5t-44 45.5t-18 73.5q0 40 14 74h-4q-235 0 -412 105.5t-273 301t-96 455.5q0 408 231 644q103 106 245.5 162.5t304.5 56.5
q291 0 488.5 -158t262.5 -439h-173q-32 114 -92.5 199t-139.5 134t-165 72.5t-181 23.5q-83 0 -161.5 -19.5t-152 -62.5t-132 -106.5t-100 -157.5t-57.5 -208h715v-161h-724q2 -144 38.5 -260.5t95 -192t138 -126.5t164 -73t176.5 -22q235 0 387 121t202 348h172
q-25 -137 -80.5 -246.5t-133 -182.5t-167 -119.5t-191.5 -68.5z" />
    <glyph glyph-name="E.alt1" unicode="&#xf009;" 
d="M1423 605h172q-24 -135 -80 -244.5t-129.5 -181.5t-166 -121t-188 -70t-197.5 -21q-235 0 -412 106t-273 301.5t-96 455.5q0 408 231 644q103 106 245.5 162t304.5 56q291 0 488.5 -158t262.5 -439h-173q-32 114 -92.5 199t-139.5 134t-165 72.5t-181 23.5
q-83 0 -161 -19.5t-152 -62.5t-132 -106t-100 -157t-58 -208h716v-162h-725q2 -144 38.5 -260.5t95 -192t138 -126.5t164 -73t176.5 -22q235 0 387 121.5t202 348.5z" />
    </font>
</defs>
</svg>
